STARTFONT 2.1
COMMENT ======================================================================
COMMENT Font Status: Missing 19 elements from base; no extensions.
COMMENT ***********
COMMENT Fidel11.bdf is based on a 30% scale from EthioLaTeX ethio[x]12.300pk  
COMMENT NOTE!!  This is a size 12 font at 100dpi, NOT size 11.  We are lieing
COMMENT to Netscape for convenience.
COMMENT ***********
COMMENT This Is The Unicode Ordered Ethiopic Font In JIS Encoding Based On UTC-95-055A.
COMMENT Extension candidates are added in 4 rows at the end in a compressed 16
COMMENT column format. SERA character names are given for alphabetic elements;
COMMENT punctuations and numbers are named descriptively.
COMMENT Unicode encoding begins at hex 1200 / dec 4608
COMMENT JIS encoding begins at Kuten [90,1] (hex 7a21 / dec 31265)
COMMENT ***********
COMMENT Another Fine Admas Product : fisseha@cig.mot.com
COMMENT Available at ftp://ftp.cs.indiana.edu/pub/fidel/fonts/webfonts.tar.Z
COMMENT ======================================================================
FONT -Admas-Fidel-Medium-R-Normal--11-110-100-100-C-363-jisx0208.1983-0
SIZE  11 100 100
FONTBOUNDINGBOX 20 17 0 -4
STARTPROPERTIES 4
FONT_ASCENT 13
FONT_DESCENT 4
COPYRIGHT "GNU CopyLeft"
DEFAULT_CHAR 32103
ENDPROPERTIES
CHARS 411
STARTCHAR he
ENCODING  31265
SWIDTH 206 0
DWIDTH 11 0
BBX 8 10 1 0
BITMAP
04
82
82
82
82
82
84
84
88
70
ENDCHAR
STARTCHAR hu
ENCODING  31266
SWIDTH 273 0
DWIDTH 14 0
BBX 12 10 1 0
BITMAP
0200
8200
8200
83e0
8220
8220
8200
8400
8800
7000
ENDCHAR
STARTCHAR hi
ENCODING  31267
SWIDTH 200 0
DWIDTH 10 0
BBX 9 11 0 -1
BITMAP
4200
8200
8200
8400
7400
0800
1000
2000
2000
2000
1f00
ENDCHAR
STARTCHAR ha
ENCODING  31268
SWIDTH 187 0
DWIDTH 10 0
BBX 8 11 0 0
BITMAP
42
82
82
84
fc
04
08
08
10
10
10
ENDCHAR
STARTCHAR hE
ENCODING  31269
SWIDTH 187 0
DWIDTH 10 0
BBX 9 11 0 0
BITMAP
4200
8200
8600
8400
7400
0800
1800
1000
2600
2200
3e00
ENDCHAR
STARTCHAR h
ENCODING  31270
SWIDTH 206 0
DWIDTH 11 0
BBX 10 11 0 0
BITMAP
0100
8100
8100
8100
4100
2100
4100
4100
4100
4200
3c00
ENDCHAR
STARTCHAR ho
ENCODING  31271
SWIDTH 266 0
DWIDTH 14 0
BBX 12 10 1 0
BITMAP
03c0
8220
83c0
8200
8200
8200
8200
8200
8400
7800
ENDCHAR
STARTCHAR le
ENCODING  31273
SWIDTH 213 0
DWIDTH 11 0
BBX 9 11 1 0
BITMAP
7800
0800
1c00
3600
6200
4200
c200
8200
8200
8200
c380
ENDCHAR
STARTCHAR lu
ENCODING  31274
SWIDTH 280 0
DWIDTH 13 0
BBX 11 11 1 0
BITMAP
7800
0800
1c00
3600
6200
43e0
c220
8220
8200
8200
c380
ENDCHAR
STARTCHAR li
ENCODING  31275
SWIDTH 286 0
DWIDTH 13 0
BBX 11 11 1 -1
BITMAP
7800
0800
1c00
3600
6200
c200
8200
8200
8200
c220
63e0
ENDCHAR
STARTCHAR la
ENCODING  31276
SWIDTH 206 0
DWIDTH 11 0
BBX 9 11 1 0
BITMAP
7800
0800
1c00
3600
6200
c200
8200
8200
0200
0200
0380
ENDCHAR
STARTCHAR lE
ENCODING  31277
SWIDTH 266 0
DWIDTH 13 0
BBX 11 11 1 0
BITMAP
7800
0800
1c00
3600
6200
c200
8200
8200
83c0
8220
c3c0
ENDCHAR
STARTCHAR l
ENCODING  31278
SWIDTH 233 0
DWIDTH 11 0
BBX 9 11 1 0
BITMAP
7800
0800
1c00
3600
6200
c200
8200
8200
f200
9200
f380
ENDCHAR
STARTCHAR lo
ENCODING  31279
SWIDTH 320 0
DWIDTH 15 0
BBX 13 11 1 0
BITMAP
7800
0800
1c00
3600
63f0
c248
8230
8200
8200
8200
c380
ENDCHAR
STARTCHAR lWa
ENCODING  31280
SWIDTH 286 0
DWIDTH 13 0
BBX 11 13 1 -2
BITMAP
7800
0800
1c00
3600
6200
c200
8200
8200
0200
0200
1fc0
3060
2020
ENDCHAR
STARTCHAR He
ENCODING  31281
SWIDTH 220 0
DWIDTH 11 0
BBX 11 11 0 0
BITMAP
0c00
0400
0400
0400
1f00
75c0
4440
c460
8420
8420
4420
ENDCHAR
STARTCHAR Hu
ENCODING  31282
SWIDTH 380 0
DWIDTH 19 0
BBX 18 11 1 0
BITMAP
0c0000
040000
040000
040000
1f0000
75c000
447e00
c46200
842200
842000
442000
ENDCHAR
STARTCHAR Hi
ENCODING  31283
SWIDTH 380 0
DWIDTH 19 0
BBX 18 11 1 -1
BITMAP
0c0000
040000
040000
040000
1f0000
75c000
444000
c46000
842100
842100
443f00
ENDCHAR
STARTCHAR Ha
ENCODING  31284
SWIDTH 286 0
DWIDTH 15 0
BBX 13 11 1 0
BITMAP
0c00
0400
0400
0400
1f00
75c0
8440
8440
4440
0040
0040
ENDCHAR
STARTCHAR HE
ENCODING  31285
SWIDTH 380 0
DWIDTH 19 0
BBX 17 11 1 0
BITMAP
0c0000
040000
040000
040000
1f0000
75c000
444000
c46800
843600
842200
443e00
ENDCHAR
STARTCHAR H
ENCODING  31286
SWIDTH 286 0
DWIDTH 15 0
BBX 13 12 1 0
BITMAP
2000
2000
3c00
0400
0400
1f00
75c0
4440
c460
8420
8420
4420
ENDCHAR
STARTCHAR Ho
ENCODING  31287
SWIDTH 286 0
DWIDTH 15 0
BBX 13 11 1 0
BITMAP
0c00
0400
0400
0400
1f00
75c0
4440
c440
8440
8000
4000
ENDCHAR
STARTCHAR HWa
ENCODING  31288
SWIDTH 286 0
DWIDTH 15 0
BBX 13 11 1 0
BITMAP
0c00
0400
0400
0400
1f00
75c0
8440
8440
4440
0040
0040
ENDCHAR
STARTCHAR me
ENCODING  31289
SWIDTH 333 0
DWIDTH 13 0
BBX 13 6 1 2
BITMAP
3fe0
6520
c520
8a20
9240
f3c0
ENDCHAR
STARTCHAR mu
ENCODING  31290
SWIDTH 406 0
DWIDTH 17 0
BBX 16 6 1 2
BITMAP
3fe000
652000
c53e00
8a2200
924200
f3c000
ENDCHAR
STARTCHAR mi
ENCODING  31291
SWIDTH 373 0
DWIDTH 17 0
BBX 16 12 1 -1
BITMAP
3fe000
451000
851000
891000
f0e000
002000
002000
002000
004000
004200
004400
007e00
ENDCHAR
STARTCHAR ma
ENCODING  31292
SWIDTH 353 0
DWIDTH 14 0
BBX 14 11 1 0
BITMAP
3fe0
4510
8510
8910
f0e0
0020
0020
0040
0040
0040
0040
ENDCHAR
STARTCHAR mE
ENCODING  31293
SWIDTH 373 0
DWIDTH 15 0
BBX 15 11 1 0
BITMAP
3fe000
451000
851000
891000
f0e000
002000
002000
002000
005800
004400
007800
ENDCHAR
STARTCHAR m
ENCODING  31294
SWIDTH 340 0
DWIDTH 13 0
BBX 13 11 1 0
BITMAP
3fc0
ea20
8a20
8920
89e0
7800
1800
3000
6000
c000
8000
ENDCHAR
STARTCHAR mo
ENCODING  31295
SWIDTH 340 0
DWIDTH 13 0
BBX 13 11 2 0
BITMAP
3fc0
ea20
8a20
8920
c9e0
7800
1800
0800
1000
1000
1000
ENDCHAR
STARTCHAR mWa
ENCODING  31296
SWIDTH 393 0
DWIDTH 16 0
BBX 15 13 1 -2
BITMAP
3fe000
451000
851000
891000
f0e000
002000
002000
004000
004000
004000
03f800
060c00
040400
ENDCHAR
STARTCHAR `se/s2e
ENCODING  31297
SWIDTH 293 0
DWIDTH 15 0
BBX 13 7 1 2
BITMAP
4440
4440
4440
c4c0
8f80
9800
f000
ENDCHAR
STARTCHAR `su/s2u
ENCODING  31298
SWIDTH 360 0
DWIDTH 18 0
BBX 17 7 1 2
BITMAP
444000
444000
444000
c4fc00
8f8400
980000
f00000
ENDCHAR
STARTCHAR `si/s2i
ENCODING  31299
SWIDTH 306 0
DWIDTH 16 0
BBX 15 11 0 -1
BITMAP
4420
4420
4420
8c60
7bc0
0040
0040
0080
0084
0084
007c
ENDCHAR
STARTCHAR `sa/s2a
ENCODING  31300
SWIDTH 260 0
DWIDTH 13 0
BBX 13 10 0 0
BITMAP
4420
4420
4420
8c60
7bc0
0040
0040
0080
0080
0040
ENDCHAR
STARTCHAR `sE/s2E
ENCODING  31301
SWIDTH 313 0
DWIDTH 16 0
BBX 15 11 1 0
BITMAP
4440
4440
4440
88c0
7f80
0080
0080
00c0
00b8
0088
00f8
ENDCHAR
STARTCHAR `s/s2
ENCODING  31302
SWIDTH 346 0
DWIDTH 18 0
BBX 16 11 1 0
BITMAP
1118
1088
1088
11f8
1e00
1000
3000
2000
6000
c000
8000
ENDCHAR
STARTCHAR `so/s2o
ENCODING  31303
SWIDTH 286 0
DWIDTH 15 0
BBX 13 11 1 0
BITMAP
4630
4220
4420
85e0
7f00
0400
0c00
1800
3000
6000
4000
ENDCHAR
STARTCHAR `sWa/s2Wa
ENCODING  31304
SWIDTH 260 0
DWIDTH 13 0
BBX 13 10 0 0
BITMAP
4420
4420
4420
8c60
7bc0
0040
0040
0080
0080
0040
ENDCHAR
STARTCHAR re
ENCODING  31305
SWIDTH 206 0
DWIDTH 11 0
BBX 8 11 1 0
BITMAP
00
04
04
08
10
20
40
80
80
8f
70
ENDCHAR
STARTCHAR ru
ENCODING  31306
SWIDTH 226 0
DWIDTH 12 0
BBX 9 10 1 0
BITMAP
0800
0800
3000
4000
8000
8000
7f80
0880
0800
0800
ENDCHAR
STARTCHAR ri
ENCODING  31307
SWIDTH 206 0
DWIDTH 11 0
BBX 8 10 1 0
BITMAP
04
04
08
10
20
40
84
82
82
7c
ENDCHAR
STARTCHAR ra
ENCODING  31308
SWIDTH 266 0
DWIDTH 14 0
BBX 11 10 1 0
BITMAP
0400
0400
0800
1000
2000
4000
83c0
8440
8400
7800
ENDCHAR
STARTCHAR rE
ENCODING  31309
SWIDTH 246 0
DWIDTH 13 0
BBX 11 10 1 0
BITMAP
0400
0400
0800
1000
2000
4000
8300
8480
8680
7900
ENDCHAR
STARTCHAR r
ENCODING  31310
SWIDTH 206 0
DWIDTH 11 0
BBX 8 11 1 0
BITMAP
00
3c
42
82
80
80
80
80
82
82
7e
ENDCHAR
STARTCHAR ro
ENCODING  31311
SWIDTH 246 0
DWIDTH 13 0
BBX 10 11 1 0
BITMAP
0000
3f80
4440
8380
8000
8000
8000
8000
8100
c100
7f00
ENDCHAR
STARTCHAR rWa
ENCODING  31312
SWIDTH 266 0
DWIDTH 14 0
BBX 12 12 1 0
BITMAP
2080
3b80
0400
0400
0800
1000
2000
4000
83c0
8440
8440
7800
ENDCHAR
STARTCHAR se
ENCODING  31313
SWIDTH 206 0
DWIDTH 11 0
BBX 8 11 1 0
BITMAP
00
18
18
3c
66
42
c2
82
82
82
c2
ENDCHAR
STARTCHAR su
ENCODING  31314
SWIDTH 280 0
DWIDTH 14 0
BBX 12 11 1 0
BITMAP
0000
1800
1800
3c00
6600
4200
c3e0
8220
8220
8200
c200
ENDCHAR
STARTCHAR si
ENCODING  31315
SWIDTH 280 0
DWIDTH 14 0
BBX 12 11 1 -1
BITMAP
1800
1800
3c00
6600
4200
c200
8200
8200
8220
8220
c3e0
ENDCHAR
STARTCHAR sa
ENCODING  31316
SWIDTH 206 0
DWIDTH 11 0
BBX 8 11 1 0
BITMAP
18
18
3c
66
42
c2
82
82
42
02
02
ENDCHAR
STARTCHAR sE
ENCODING  31317
SWIDTH 260 0
DWIDTH 13 0
BBX 11 11 1 0
BITMAP
1800
1800
3c00
6600
4200
c200
8200
8300
8280
8240
83c0
ENDCHAR
STARTCHAR s
ENCODING  31318
SWIDTH 206 0
DWIDTH 11 0
BBX 8 11 1 0
BITMAP
70
18
3c
66
42
c2
82
82
82
82
82
ENDCHAR
STARTCHAR so
ENCODING  31319
SWIDTH 206 0
DWIDTH 11 0
BBX 8 11 1 0
BITMAP
18
18
3c
66
42
c2
82
82
86
80
80
ENDCHAR
STARTCHAR sWa
ENCODING  31320
SWIDTH 300 0
DWIDTH 14 0
BBX 12 13 0 0
BITMAP
1800
1800
3c00
2400
6600
4200
8200
8200
4200
0200
1fc0
3060
2020
ENDCHAR
STARTCHAR xe
ENCODING  31321
SWIDTH 226 0
DWIDTH 12 0
BBX 11 12 0 0
BITMAP
4040
ffe0
8420
0e00
1b00
3180
2080
2080
2080
2080
2080
2080
ENDCHAR
STARTCHAR xu
ENCODING  31322
SWIDTH 293 0
DWIDTH 15 0
BBX 13 12 1 0
BITMAP
4020
fff0
8610
0f00
1900
3180
6080
40f8
4088
4088
6080
38c0
ENDCHAR
STARTCHAR xi
ENCODING  31323
SWIDTH 300 0
DWIDTH 15 0
BBX 14 12 1 -1
BITMAP
4020
fff0
8410
0f00
1980
3080
6080
4080
4080
4088
6088
38f8
ENDCHAR
STARTCHAR xa
ENCODING  31324
SWIDTH 226 0
DWIDTH 12 0
BBX 11 12 0 0
BITMAP
4040
ffe0
8420
0e00
1b80
3080
2080
2080
2080
3880
0080
00e0
ENDCHAR
STARTCHAR xE
ENCODING  31325
SWIDTH 266 0
DWIDTH 14 0
BBX 12 12 0 0
BITMAP
4020
fff0
8410
0e00
1b00
3180
2080
6080
4080
40f0
6090
38f0
ENDCHAR
STARTCHAR x
ENCODING  31326
SWIDTH 260 0
DWIDTH 13 0
BBX 12 12 1 0
BITMAP
4040
ffe0
8c20
0700
0d80
1880
10c0
1040
1040
1040
1040
1840
ENDCHAR
STARTCHAR xo
ENCODING  31327
SWIDTH 226 0
DWIDTH 12 0
BBX 11 12 0 0
BITMAP
4040
ffe0
8420
0e00
1b00
3180
2080
2080
20c0
2000
2000
3800
ENDCHAR
STARTCHAR xWa
ENCODING  31328
SWIDTH 293 0
DWIDTH 15 0
BBX 14 14 0 -2
BITMAP
4040
ffe0
8420
0e00
1b00
3180
2080
2080
2080
3080
0080
07f0
0c18
0808
ENDCHAR
STARTCHAR qe
ENCODING  31329
SWIDTH 246 0
DWIDTH 11 0
BBX 10 11 0 0
BITMAP
0800
0800
3f00
6980
c980
cb00
7e00
0800
0800
0800
0800
ENDCHAR
STARTCHAR qu
ENCODING  31330
SWIDTH 246 0
DWIDTH 13 0
BBX 12 11 0 0
BITMAP
0800
0800
3f00
6980
c980
cb00
7e00
0800
0fc0
0880
0800
ENDCHAR
STARTCHAR qi
ENCODING  31331
SWIDTH 246 0
DWIDTH 13 0
BBX 12 11 0 -1
BITMAP
0800
0800
3f00
6980
c980
cb00
7e00
0800
0880
0880
0f80
ENDCHAR
STARTCHAR qa
ENCODING  31332
SWIDTH 266 0
DWIDTH 12 0
BBX 10 11 0 -1
BITMAP
0400
0400
1f80
34c0
64c0
6580
3f00
0400
1c00
7000
c000
ENDCHAR
STARTCHAR qE
ENCODING  31333
SWIDTH 246 0
DWIDTH 13 0
BBX 12 11 0 0
BITMAP
0800
0800
3f00
6980
c980
cb00
7e00
0800
0f00
0880
0f80
ENDCHAR
STARTCHAR q
ENCODING  31334
SWIDTH 246 0
DWIDTH 11 0
BBX 10 12 0 0
BITMAP
2000
3800
0800
3f00
6980
c980
cb00
7e00
0800
0800
0800
0800
ENDCHAR
STARTCHAR qo
ENCODING  31335
SWIDTH 260 0
DWIDTH 11 0
BBX 10 11 0 0
BITMAP
0e00
1200
1200
1400
3f80
4980
c900
fe00
0800
0800
0800
ENDCHAR
STARTCHAR qWe
ENCODING  31337
SWIDTH 300 0
DWIDTH 15 0
BBX 14 11 0 0
BITMAP
0800
0800
3f00
6980
c980
cbf8
7e24
0814
0808
0800
0800
ENDCHAR
STARTCHAR qWi
ENCODING  31339
SWIDTH 380 0
DWIDTH 19 0
BBX 19 11 0 0
BITMAP
080000
080000
3f1000
699000
c9f000
cb1000
7e1e00
080200
080000
080000
080000
ENDCHAR
STARTCHAR qWa
ENCODING  31340
SWIDTH 246 0
DWIDTH 13 0
BBX 12 12 0 -1
BITMAP
0800
0800
3f00
6980
c980
cb00
7e00
0800
0800
7f80
c180
0080
ENDCHAR
STARTCHAR qWE
ENCODING  31341
SWIDTH 246 0
DWIDTH 13 0
BBX 12 13 0 -2
BITMAP
0800
0800
3f00
6980
c980
cb00
7e00
0800
0bc0
0c40
7fc0
c000
8000
ENDCHAR
STARTCHAR qWu/qW
ENCODING  31342
SWIDTH 360 0
DWIDTH 18 0
BBX 18 11 0 0
BITMAP
080000
080000
3f1000
699000
c9fc00
cb0400
7e0400
080000
080000
080000
080000
ENDCHAR
STARTCHAR Qe
ENCODING  31345
SWIDTH 246 0
DWIDTH 13 0
BBX 12 13 0 0
BITMAP
4040
ffe0
8420
0400
1f80
34c0
64c0
6580
3f00
0400
0400
0400
0400
ENDCHAR
STARTCHAR Qu
ENCODING  31346
SWIDTH 246 0
DWIDTH 13 0
BBX 12 13 0 0
BITMAP
4040
ffe0
8420
0400
1f80
34c0
64c0
6580
3f00
0400
07e0
0440
0400
ENDCHAR
STARTCHAR Qi
ENCODING  31347
SWIDTH 246 0
DWIDTH 13 0
BBX 12 13 0 -1
BITMAP
4040
ffe0
8420
0400
1f80
34c0
64c0
6580
3f00
0400
0440
0440
07c0
ENDCHAR
STARTCHAR Qa
ENCODING  31348
SWIDTH 266 0
DWIDTH 14 0
BBX 13 13 0 -1
BITMAP
4040
ffe0
8420
0400
1f80
34c0
64c0
6580
3f00
0400
1c00
7000
c000
ENDCHAR
STARTCHAR QE
ENCODING  31349
SWIDTH 246 0
DWIDTH 13 0
BBX 12 13 0 0
BITMAP
4040
ffe0
8420
0400
1f80
34c0
64c0
6580
3f00
0400
0780
0440
07c0
ENDCHAR
STARTCHAR Q
ENCODING  31350
SWIDTH 246 0
DWIDTH 13 0
BBX 12 14 0 0
BITMAP
4100
ff80
8880
0e00
0200
0fc0
1a60
3260
32c0
1f80
0200
0200
0200
0200
ENDCHAR
STARTCHAR Qo
ENCODING  31351
SWIDTH 260 0
DWIDTH 13 0
BBX 12 13 0 0
BITMAP
4080
ffc0
8c40
1200
1200
1400
3f80
4980
c900
fe00
0800
0800
0800
ENDCHAR
STARTCHAR QWe
ENCODING  31353
SWIDTH 300 0
DWIDTH 17 0
BBX 15 13 0 0
BITMAP
4080
ffc0
8440
0400
1f80
34c0
64c0
65fc
3f12
040a
0404
0400
0400
ENDCHAR
STARTCHAR QWi
ENCODING  31355
SWIDTH 380 0
DWIDTH 19 0
BBX 19 13 0 0
BITMAP
408000
ffc000
884000
080000
3f1000
699000
c9f000
cb1000
7e1e00
080200
080000
080000
080000
ENDCHAR
STARTCHAR QWa
ENCODING  31356
SWIDTH 246 0
DWIDTH 13 0
BBX 12 14 0 -1
BITMAP
4080
ffc0
8840
0800
3f00
6980
c980
cb00
7e00
0800
0800
7f80
c180
0080
ENDCHAR
STARTCHAR QWE
ENCODING  31357
SWIDTH 246 0
DWIDTH 13 0
BBX 12 15 0 -2
BITMAP
4080
ffc0
8840
0800
3f00
6980
c980
cb00
7e00
0800
0bc0
0c40
7fc0
c000
8000
ENDCHAR
STARTCHAR QWu/QW
ENCODING  31358
SWIDTH 360 0
DWIDTH 18 0
BBX 18 13 0 0
BITMAP
408000
ffc000
884000
080000
3f1000
699000
c9fc00
cb0400
7e0400
080000
080000
080000
080000
ENDCHAR
STARTCHAR be
ENCODING  31523
SWIDTH 187 0
DWIDTH 10 0
BBX 8 11 1 0
BITMAP
00
3c
42
82
82
82
82
82
82
82
42
ENDCHAR
STARTCHAR bu
ENCODING  31524
SWIDTH 266 0
DWIDTH 14 0
BBX 12 11 1 0
BITMAP
0000
3c00
4200
8200
8200
83e0
8220
8200
8200
8200
4200
ENDCHAR
STARTCHAR bi
ENCODING  31525
SWIDTH 266 0
DWIDTH 14 0
BBX 12 11 1 -1
BITMAP
0000
3c00
4200
8200
8200
8200
8200
8200
8200
c220
43e0
ENDCHAR
STARTCHAR ba
ENCODING  31526
SWIDTH 187 0
DWIDTH 10 0
BBX 8 11 1 0
BITMAP
00
3c
42
82
82
82
82
82
82
02
02
ENDCHAR
STARTCHAR bE
ENCODING  31527
SWIDTH 246 0
DWIDTH 13 0
BBX 11 11 1 0
BITMAP
0000
3c00
4200
8200
8200
8200
8200
8300
8280
8240
83c0
ENDCHAR
STARTCHAR b
ENCODING  31528
SWIDTH 273 0
DWIDTH 14 0
BBX 12 11 1 0
BITMAP
0000
03c0
0420
0820
0820
7820
8820
8820
0820
0820
0420
ENDCHAR
STARTCHAR bo
ENCODING  31529
SWIDTH 187 0
DWIDTH 10 0
BBX 8 11 1 0
BITMAP
00
3c
42
82
82
82
82
82
82
80
80
ENDCHAR
STARTCHAR bWa
ENCODING  31530
SWIDTH 280 0
DWIDTH 14 0
BBX 12 13 1 -2
BITMAP
3c00
4200
8200
8200
8200
8200
8200
8200
8200
0200
1fc0
3060
2020
ENDCHAR
STARTCHAR ve
ENCODING  31531
SWIDTH 187 0
DWIDTH 10 0
BBX 8 13 1 0
BITMAP
42
ff
81
3c
42
82
82
82
82
82
82
02
02
ENDCHAR
STARTCHAR vu
ENCODING  31532
SWIDTH 266 0
DWIDTH 14 0
BBX 12 13 1 0
BITMAP
4200
ff00
8100
3c00
4200
8200
8200
83e0
8220
8200
8200
8200
4200
ENDCHAR
STARTCHAR vi
ENCODING  31533
SWIDTH 266 0
DWIDTH 14 0
BBX 12 13 1 -1
BITMAP
4200
ff00
8100
3c00
4200
8200
8200
8200
8200
8200
8200
c220
43e0
ENDCHAR
STARTCHAR va
ENCODING  31534
SWIDTH 187 0
DWIDTH 10 0
BBX 8 13 1 0
BITMAP
42
ff
81
3c
42
82
82
82
82
82
82
02
02
ENDCHAR
STARTCHAR vE
ENCODING  31535
SWIDTH 246 0
DWIDTH 13 0
BBX 11 13 1 0
BITMAP
4200
ff00
8100
3c00
4200
8200
8200
8200
8200
8300
8280
8240
83c0
ENDCHAR
STARTCHAR v
ENCODING  31536
SWIDTH 273 0
DWIDTH 14 0
BBX 12 13 1 0
BITMAP
0420
0ff0
0810
03c0
0420
0820
0820
7820
8820
8820
0820
0820
0420
ENDCHAR
STARTCHAR vo
ENCODING  31537
SWIDTH 187 0
DWIDTH 10 0
BBX 8 13 1 0
BITMAP
42
ff
81
3c
42
82
82
82
82
82
82
80
80
ENDCHAR
STARTCHAR vWa
ENCODING  31538
SWIDTH 280 0
DWIDTH 14 0
BBX 12 15 1 -2
BITMAP
4200
ff00
8100
3c00
4200
8200
8200
8200
8200
8200
8200
0200
1fc0
3060
2020
ENDCHAR
STARTCHAR te
ENCODING  31539
SWIDTH 260 0
DWIDTH 11 0
BBX 9 11 0 0
BITMAP
1800
0800
0800
0800
3f00
c880
8880
0800
0800
0800
0c00
ENDCHAR
STARTCHAR tu
ENCODING  31540
SWIDTH 260 0
DWIDTH 12 0
BBX 10 11 0 0
BITMAP
1800
0800
0800
0800
3f00
c880
8880
0800
0fc0
0880
0c00
ENDCHAR
STARTCHAR ti
ENCODING  31541
SWIDTH 260 0
DWIDTH 11 0
BBX 9 11 0 -1
BITMAP
1800
0800
0800
0800
3f00
c880
8880
0800
0880
0880
0f80
ENDCHAR
STARTCHAR ta
ENCODING  31542
SWIDTH 286 0
DWIDTH 12 0
BBX 10 11 1 0
BITMAP
0c00
0400
0400
1f80
6440
4440
0400
0400
1c00
7000
c000
ENDCHAR
STARTCHAR tE
ENCODING  31543
SWIDTH 260 0
DWIDTH 11 0
BBX 9 11 0 0
BITMAP
1800
0800
0800
0800
3f00
c880
8880
0800
0e00
0900
0f00
ENDCHAR
STARTCHAR t
ENCODING  31544
SWIDTH 260 0
DWIDTH 11 0
BBX 9 12 0 0
BITMAP
6000
3000
1800
0800
0800
3f00
c880
8880
0800
0800
0800
0800
ENDCHAR
STARTCHAR to
ENCODING  31545
SWIDTH 266 0
DWIDTH 13 0
BBX 11 11 0 0
BITMAP
0780
0480
0580
0600
3fc0
c440
8460
0800
0800
0800
0800
ENDCHAR
STARTCHAR tWa
ENCODING  31546
SWIDTH 300 0
DWIDTH 11 0
BBX 9 13 0 0
BITMAP
1800
0800
0800
0800
3f00
c880
8880
0800
0800
0800
7f00
c180
8080
ENDCHAR
STARTCHAR ce
ENCODING  31547
SWIDTH 266 0
DWIDTH 12 0
BBX 10 12 0 0
BITMAP
4100
ff80
8880
0800
3f00
c880
8880
0800
0800
0800
0800
0800
ENDCHAR
STARTCHAR cu
ENCODING  31548
SWIDTH 266 0
DWIDTH 14 0
BBX 12 12 0 0
BITMAP
4100
ff80
8880
0800
3f00
c880
8880
0800
0f80
0880
0880
0800
ENDCHAR
STARTCHAR ci
ENCODING  31549
SWIDTH 266 0
DWIDTH 14 0
BBX 12 12 0 -1
BITMAP
4100
ff80
8880
0800
3f00
c880
8880
0800
0800
0880
0880
0f80
ENDCHAR
STARTCHAR ca
ENCODING  31550
SWIDTH 293 0
DWIDTH 12 0
BBX 12 12 1 -1
BITMAP
2080
7fc0
4440
0400
1f80
6440
4440
0400
0400
1c00
7000
c000
ENDCHAR
STARTCHAR cE
ENCODING  31551
SWIDTH 266 0
DWIDTH 12 0
BBX 10 11 0 0
BITMAP
4100
ff80
8880
0800
3f00
c880
8880
0800
0f00
0980
0f00
ENDCHAR
STARTCHAR c
ENCODING  31552
SWIDTH 293 0
DWIDTH 14 0
BBX 13 13 1 0
BITMAP
0000
4100
ff80
8880
0e00
0200
0fc0
3220
2220
0200
0200
0200
0200
ENDCHAR
STARTCHAR co
ENCODING  31553
SWIDTH 266 0
DWIDTH 14 0
BBX 12 13 1 0
BITMAP
4080
f3c0
8c40
1200
1200
0c00
3f00
c880
8880
0800
0800
0800
0800
ENDCHAR
STARTCHAR cWa
ENCODING  31554
SWIDTH 300 0
DWIDTH 13 0
BBX 11 13 0 0
BITMAP
4100
ff80
8880
0800
3f00
c880
8880
0800
0800
0800
7f00
c180
8080
ENDCHAR
STARTCHAR `he/h2e
ENCODING  31555
SWIDTH 286 0
DWIDTH 15 0
BBX 13 11 1 0
BITMAP
0400
0400
7c00
c700
8100
0100
0100
0100
0300
0200
0300
ENDCHAR
STARTCHAR `hu/h2u
ENCODING  31556
SWIDTH 293 0
DWIDTH 15 0
BBX 14 11 0 0
BITMAP
0400
0400
7c00
c700
8100
0100
01f8
0110
0308
0200
0300
ENDCHAR
STARTCHAR `hi/h2i
ENCODING  31557
SWIDTH 293 0
DWIDTH 15 0
BBX 14 11 0 -1
BITMAP
0400
0400
7c00
c700
8100
0100
0100
0100
0300
0230
03e0
ENDCHAR
STARTCHAR `ha/h2a
ENCODING  31558
SWIDTH 220 0
DWIDTH 11 0
BBX 10 12 0 -1
BITMAP
0400
0400
7c00
c700
8100
0180
0100
0300
0e00
7800
c000
8000
ENDCHAR
STARTCHAR `hE/h2E
ENCODING  31559
SWIDTH 286 0
DWIDTH 15 0
BBX 14 11 0 0
BITMAP
0400
0400
7c00
c700
8100
0100
0100
0180
0340
0220
03e0
ENDCHAR
STARTCHAR `h/h2
ENCODING  31560
SWIDTH 213 0
DWIDTH 11 0
BBX 10 11 1 0
BITMAP
0400
0400
3c00
6700
c100
8100
0100
0100
0300
0200
0300
ENDCHAR
STARTCHAR `ho/h2o
ENCODING  31561
SWIDTH 313 0
DWIDTH 16 0
BBX 14 10 1 0
BITMAP
01f8
0648
7c68
c410
8400
0380
0080
0180
0100
0180
ENDCHAR
STARTCHAR hWe
ENCODING  31563
SWIDTH 340 0
DWIDTH 17 0
BBX 17 11 1 0
BITMAP
040000
040000
7c0000
c70000
81fc00
011200
011c00
010000
010000
020000
03c000
ENDCHAR
STARTCHAR hWi
ENCODING  31565
SWIDTH 320 0
DWIDTH 16 0
BBX 16 11 1 0
BITMAP
0400
0400
7c20
c720
81e0
0120
013c
0104
0300
0200
0300
ENDCHAR
STARTCHAR hWa
ENCODING  31566
SWIDTH 246 0
DWIDTH 13 0
BBX 12 12 1 -1
BITMAP
0400
0400
7c00
c700
8100
0100
0100
0100
0100
0fe0
1860
1020
ENDCHAR
STARTCHAR hWE
ENCODING  31567
SWIDTH 266 0
DWIDTH 14 0
BBX 13 12 1 -2
BITMAP
0400
0400
7c00
c700
8100
0100
0100
0380
0240
1fc0
6000
4000
ENDCHAR
STARTCHAR hWu/hW
ENCODING  31568
SWIDTH 346 0
DWIDTH 18 0
BBX 17 11 1 0
BITMAP
040000
040000
7c2000
c72000
81f800
010800
010800
010800
030000
020000
030000
ENDCHAR
STARTCHAR ne
ENCODING  31571
SWIDTH 147 0
DWIDTH 8 0
BBX 5 11 1 0
BITMAP
80
80
80
f0
18
30
20
20
60
40
c0
ENDCHAR
STARTCHAR nu
ENCODING  31572
SWIDTH 206 0
DWIDTH 11 0
BBX 9 11 1 0
BITMAP
8000
8000
8000
f000
1800
3000
3f00
2100
6000
4000
c000
ENDCHAR
STARTCHAR ni
ENCODING  31573
SWIDTH 187 0
DWIDTH 10 0
BBX 8 11 1 -1
BITMAP
80
80
80
f0
18
30
20
20
60
42
7e
ENDCHAR
STARTCHAR na
ENCODING  31574
SWIDTH 200 0
DWIDTH 10 0
BBX 9 10 1 0
BITMAP
3f00
6100
c100
8000
8000
f800
0800
0800
1800
1000
ENDCHAR
STARTCHAR nE
ENCODING  31575
SWIDTH 173 0
DWIDTH 9 0
BBX 8 11 0 0
BITMAP
80
80
80
f0
18
30
20
30
68
4e
78
ENDCHAR
STARTCHAR n
ENCODING  31576
SWIDTH 200 0
DWIDTH 13 0
BBX 11 11 1 0
BITMAP
fc00
8800
8800
1f00
0180
0300
0200
0200
0600
0400
0400
ENDCHAR
STARTCHAR no
ENCODING  31577
SWIDTH 226 0
DWIDTH 12 0
BBX 10 10 1 0
BITMAP
3f80
6480
c780
8000
8000
f800
0800
0800
1800
1000
ENDCHAR
STARTCHAR nWa
ENCODING  31578
SWIDTH 240 0
DWIDTH 12 0
BBX 11 12 0 -2
BITMAP
1f00
3100
6100
4000
4000
7800
0800
0800
0800
7f00
c180
8080
ENDCHAR
STARTCHAR Ne
ENCODING  31579
SWIDTH 246 0
DWIDTH 13 0
BBX 11 12 0 0
BITMAP
4080
ffc0
8840
0800
0800
0f00
0180
0300
0200
0200
0600
0400
ENDCHAR
STARTCHAR Nu
ENCODING  31580
SWIDTH 266 0
DWIDTH 14 0
BBX 13 12 0 0
BITMAP
4080
ffc0
8840
0800
0800
0f00
0110
03f0
0220
0200
0600
0400
ENDCHAR
STARTCHAR Ni
ENCODING  31581
SWIDTH 260 0
DWIDTH 13 0
BBX 12 12 1 -1
BITMAP
4080
ffc0
8840
0800
0f00
0180
0300
0200
0200
0620
0420
07e0
ENDCHAR
STARTCHAR Na
ENCODING  31582
SWIDTH 246 0
DWIDTH 13 0
BBX 11 12 1 0
BITMAP
2040
7fe0
4420
1f80
3080
6080
4000
7f00
0100
0100
0300
0200
ENDCHAR
STARTCHAR NE
ENCODING  31583
SWIDTH 240 0
DWIDTH 12 0
BBX 12 12 0 0
BITMAP
4080
ffc0
8840
0800
0f00
0180
0300
0200
0300
0680
04c0
0780
ENDCHAR
STARTCHAR N
ENCODING  31584
SWIDTH 246 0
DWIDTH 13 0
BBX 11 13 1 0
BITMAP
4080
ffc0
8840
7f00
4200
0200
07c0
0060
00c0
0080
0180
0100
0100
ENDCHAR
STARTCHAR No
ENCODING  31585
SWIDTH 266 0
DWIDTH 14 0
BBX 12 12 0 0
BITMAP
4080
ffc0
8840
3fc0
6240
c3c0
8000
fc00
0400
0400
0c00
0800
ENDCHAR
STARTCHAR NWa
ENCODING  31586
SWIDTH 246 0
DWIDTH 13 0
BBX 11 14 0 -2
BITMAP
2040
7fe0
4420
1f80
30c0
6040
4000
7e00
0200
0200
0200
1fc0
3060
2020
ENDCHAR
STARTCHAR e/a
ENCODING  31587
SWIDTH 260 0
DWIDTH 9 0
BBX 9 10 0 0
BITMAP
4000
4000
7800
1000
3000
5c00
4400
8600
8200
8200
ENDCHAR
STARTCHAR u/U
ENCODING  31588
SWIDTH 260 0
DWIDTH 13 0
BBX 12 10 0 0
BITMAP
4000
4000
7800
1000
3000
5c00
47e0
8420
8220
8200
ENDCHAR
STARTCHAR i
ENCODING  31589
SWIDTH 293 0
DWIDTH 13 0
BBX 12 11 0 -1
BITMAP
4000
4000
7800
1000
3000
5000
4800
8400
8420
8220
83e0
ENDCHAR
STARTCHAR a/A
ENCODING  31590
SWIDTH 206 0
DWIDTH 11 0
BBX 10 10 0 0
BITMAP
4000
4000
7800
1000
2800
4400
8200
8200
0200
0300
ENDCHAR
STARTCHAR E
ENCODING  31591
SWIDTH 280 0
DWIDTH 14 0
BBX 13 10 0 0
BITMAP
4000
4000
7800
1000
2800
4400
4200
8270
8290
83e0
ENDCHAR
STARTCHAR I
ENCODING  31592
SWIDTH 206 0
DWIDTH 9 0
BBX 9 11 0 0
BITMAP
8000
c000
6000
3c00
1000
2800
4400
4200
8200
8200
8300
ENDCHAR
STARTCHAR o/O
ENCODING  31593
SWIDTH 206 0
DWIDTH 10 0
BBX 9 10 0 0
BITMAP
4000
4000
7800
1000
2800
4400
4200
8200
8000
8000
ENDCHAR
STARTCHAR e3
ENCODING  31594
SWIDTH 206 0
DWIDTH 11 0
BBX 10 13 0 0
BITMAP
0000
4200
ff00
9100
1000
1e00
0400
0a00
1100
2080
2080
2080
2080
ENDCHAR
STARTCHAR ke
ENCODING  31595
SWIDTH 200 0
DWIDTH 10 0
BBX 8 11 1 0
BITMAP
00
80
80
bc
e6
42
42
42
42
42
62
ENDCHAR
STARTCHAR ku
ENCODING  31596
SWIDTH 260 0
DWIDTH 13 0
BBX 12 11 1 0
BITMAP
0000
8000
8000
bc00
e600
4200
43e0
4220
4220
4200
6200
ENDCHAR
STARTCHAR ki
ENCODING  31597
SWIDTH 273 0
DWIDTH 14 0
BBX 12 12 1 -1
BITMAP
0000
8000
8000
bc00
e600
4200
4200
4200
4200
4220
4220
63e0
ENDCHAR
STARTCHAR ka
ENCODING  31598
SWIDTH 200 0
DWIDTH 10 0
BBX 8 11 1 0
BITMAP
00
80
80
be
e3
41
81
81
61
01
01
ENDCHAR
STARTCHAR kE
ENCODING  31599
SWIDTH 246 0
DWIDTH 13 0
BBX 11 11 1 0
BITMAP
0000
8000
bc00
e600
4200
4200
4200
4300
4280
4240
43c0
ENDCHAR
STARTCHAR k
ENCODING  31600
SWIDTH 200 0
DWIDTH 10 0
BBX 8 11 1 0
BITMAP
00
80
bc
e6
42
42
72
22
22
22
22
ENDCHAR
STARTCHAR ko
ENCODING  31601
SWIDTH 200 0
DWIDTH 10 0
BBX 8 11 1 0
BITMAP
00
80
80
bc
e6
42
42
42
40
40
40
ENDCHAR
STARTCHAR kWe
ENCODING  31603
SWIDTH 353 0
DWIDTH 18 0
BBX 16 11 1 0
BITMAP
0000
8000
8000
bc00
e600
4278
43c8
4278
4200
4200
4200
ENDCHAR
STARTCHAR kWi
ENCODING  31605
SWIDTH 360 0
DWIDTH 18 0
BBX 17 11 1 0
BITMAP
000000
800000
800000
bc0000
e64000
424000
43c000
427800
421000
420000
420000
ENDCHAR
STARTCHAR kWa
ENCODING  31606
SWIDTH 240 0
DWIDTH 12 0
BBX 11 11 1 0
BITMAP
8000
8000
bc00
e600
4200
4200
4200
0200
1fc0
30c0
2040
ENDCHAR
STARTCHAR kWE
ENCODING  31607
SWIDTH 280 0
DWIDTH 14 0
BBX 12 12 1 -1
BITMAP
8000
8000
bc00
e600
4200
4200
4300
42c0
0240
0fc0
3800
2000
ENDCHAR
STARTCHAR kWu/kW
ENCODING  31608
SWIDTH 320 0
DWIDTH 16 0
BBX 15 11 1 0
BITMAP
0000
8000
8000
bc40
e640
43f0
4210
4210
4200
4200
4200
ENDCHAR
STARTCHAR Ke
ENCODING  31611
SWIDTH 260 0
DWIDTH 13 0
BBX 12 12 0 0
BITMAP
0000
4080
ffc0
8800
0bc0
0e60
0420
0420
0420
0420
0420
0420
ENDCHAR
STARTCHAR Ku
ENCODING  31612
SWIDTH 320 0
DWIDTH 16 0
BBX 16 12 0 0
BITMAP
0000
4080
ffc0
8800
0bc0
0e60
0420
043e
0422
0422
0420
0420
ENDCHAR
STARTCHAR Ki
ENCODING  31613
SWIDTH 340 0
DWIDTH 17 0
BBX 16 13 0 -1
BITMAP
0000
4080
ffc0
8800
0bc0
0e60
0420
0420
0420
0420
0422
0422
043e
ENDCHAR
STARTCHAR Ka
ENCODING  31614
SWIDTH 260 0
DWIDTH 13 0
BBX 12 12 0 0
BITMAP
0000
4080
ffc0
8800
0bc0
0e60
0420
0420
0420
0420
0020
0020
ENDCHAR
STARTCHAR KE
ENCODING  31777
SWIDTH 313 0
DWIDTH 16 0
BBX 15 12 0 0
BITMAP
0000
4080
ffc0
8800
0bc0
0e60
0420
0420
0430
042c
0424
043c
ENDCHAR
STARTCHAR K
ENCODING  31778
SWIDTH 260 0
DWIDTH 13 0
BBX 12 12 0 0
BITMAP
0000
4080
ffc0
8800
0bc0
0e60
0420
0420
0320
0220
0220
0220
ENDCHAR
STARTCHAR Ko
ENCODING  31779
SWIDTH 260 0
DWIDTH 14 0
BBX 12 11 0 0
BITMAP
4080
ffc0
8800
0bc0
0e60
0420
0420
0420
0420
0400
0400
ENDCHAR
STARTCHAR KWe
ENCODING  31781
SWIDTH 353 0
DWIDTH 19 0
BBX 17 11 1 0
BITMAP
4100
ff80
8800
0bc0
0e62
0425
0439
0427
0420
0420
0420
ENDCHAR
STARTCHAR KWi
ENCODING  31783
SWIDTH 360 0
DWIDTH 19 0
BBX 17 11 1 0
BITMAP
408000
ffc000
880000
0bc000
0e6400
042400
043c00
042780
042100
042000
042000
ENDCHAR
STARTCHAR KWa
ENCODING  31784
SWIDTH 240 0
DWIDTH 17 0
BBX 15 13 1 0
BITMAP
0000
4080
ffc0
8800
0bc0
0e60
0420
0420
0420
0020
01fc
030c
0004
ENDCHAR
STARTCHAR KWE
ENCODING  31785
SWIDTH 280 0
DWIDTH 18 0
BBX 16 14 1 -1
BITMAP
0000
4080
ffc0
8800
0bc0
0e60
0420
0420
0430
042c
0024
00fc
0380
0200
ENDCHAR
STARTCHAR KWu/KW
ENCODING  31786
SWIDTH 320 0
DWIDTH 18 0
BBX 16 11 1 0
BITMAP
4080
ffc0
8800
0bc4
0e64
043f
0421
0421
0420
0420
0420
ENDCHAR
STARTCHAR we
ENCODING  31789
SWIDTH 266 0
DWIDTH 14 0
BBX 12 7 1 2
BITMAP
1f80
74c0
4440
c8c0
8880
c980
7f00
ENDCHAR
STARTCHAR wu
ENCODING  31790
SWIDTH 353 0
DWIDTH 18 0
BBX 16 7 1 2
BITMAP
1f80
74c0
4440
c4fc
8884
cb84
7e00
ENDCHAR
STARTCHAR wi
ENCODING  31791
SWIDTH 246 0
DWIDTH 13 0
BBX 10 10 1 0
BITMAP
3f80
64c0
c440
88c0
c980
7f00
0800
1080
1080
1f80
ENDCHAR
STARTCHAR wa
ENCODING  31792
SWIDTH 246 0
DWIDTH 13 0
BBX 11 10 1 0
BITMAP
3f80
64c0
c440
88c0
c980
7f00
0800
1000
1000
1000
ENDCHAR
STARTCHAR wE
ENCODING  31793
SWIDTH 246 0
DWIDTH 13 0
BBX 11 11 1 -1
BITMAP
3f80
64c0
c440
88c0
c980
7f00
0800
0c00
0a00
1100
1f00
ENDCHAR
STARTCHAR w
ENCODING  31794
SWIDTH 313 0
DWIDTH 16 0
BBX 15 8 1 1
BITMAP
0000
1f80
74c0
4440
ccc0
8880
c990
7ff8
ENDCHAR
STARTCHAR wo
ENCODING  31795
SWIDTH 266 0
DWIDTH 14 0
BBX 11 10 1 0
BITMAP
3f80
e4c0
8840
c9c0
7f00
1800
7000
c000
8000
c000
ENDCHAR
STARTCHAR `e/e2
ENCODING  31797
SWIDTH 193 0
DWIDTH 10 0
BBX 8 11 1 0
BITMAP
1e
72
c2
82
82
82
82
82
82
9e
e0
ENDCHAR
STARTCHAR `u/u2
ENCODING  31798
SWIDTH 273 0
DWIDTH 14 0
BBX 12 11 1 0
BITMAP
1e00
7200
c200
8200
8200
83f0
8230
8210
8200
9e00
e000
ENDCHAR
STARTCHAR `i/i2
ENCODING  31799
SWIDTH 206 0
DWIDTH 11 0
BBX 10 11 1 -1
BITMAP
7c00
8400
8400
8400
7e00
0200
0600
0c00
1880
1080
1f80
ENDCHAR
STARTCHAR `a/A2
ENCODING  31800
SWIDTH 167 0
DWIDTH 9 0
BBX 7 10 1 0
BITMAP
7c
84
84
84
7e
02
06
0c
18
30
ENDCHAR
STARTCHAR `E/E2
ENCODING  31801
SWIDTH 206 0
DWIDTH 11 0
BBX 9 10 1 0
BITMAP
7c00
8400
8400
8400
7e00
0200
0600
0d80
1880
3f80
ENDCHAR
STARTCHAR `I/I2
ENCODING  31802
SWIDTH 173 0
DWIDTH 9 0
BBX 8 11 1 0
BITMAP
38
10
10
7e
c2
82
82
82
82
9e
e0
ENDCHAR
STARTCHAR `o/o2
ENCODING  31803
SWIDTH 220 0
DWIDTH 11 0
BBX 9 11 1 0
BITMAP
1e00
2100
2100
2100
2100
1e00
3800
6000
4000
c000
8000
ENDCHAR
STARTCHAR ze
ENCODING  31805
SWIDTH 187 0
DWIDTH 10 0
BBX 8 10 1 0
BITMAP
84
84
84
fc
84
88
88
88
88
cc
ENDCHAR
STARTCHAR zu
ENCODING  31806
SWIDTH 246 0
DWIDTH 13 0
BBX 11 10 1 0
BITMAP
8400
8400
8400
fc00
8780
8880
8880
8880
8800
cc00
ENDCHAR
STARTCHAR zi
ENCODING  31807
SWIDTH 246 0
DWIDTH 13 0
BBX 11 11 1 -1
BITMAP
8400
8400
8400
fc00
8400
8800
8800
8800
8880
8880
cf80
ENDCHAR
STARTCHAR za
ENCODING  31808
SWIDTH 187 0
DWIDTH 10 0
BBX 8 10 1 0
BITMAP
84
84
84
fc
84
88
88
c8
08
0c
ENDCHAR
STARTCHAR zE
ENCODING  31809
SWIDTH 246 0
DWIDTH 13 0
BBX 11 10 1 0
BITMAP
8400
8400
8400
fc00
8400
8800
8c00
8b00
8880
cf80
ENDCHAR
STARTCHAR z
ENCODING  31810
SWIDTH 260 0
DWIDTH 13 0
BBX 12 10 0 0
BITMAP
6080
9080
9080
9f80
1080
1100
1100
1100
1100
1980
ENDCHAR
STARTCHAR zo
ENCODING  31811
SWIDTH 180 0
DWIDTH 9 0
BBX 8 10 1 0
BITMAP
84
84
84
fc
84
88
88
8c
80
e0
ENDCHAR
STARTCHAR zWa
ENCODING  31812
SWIDTH 260 0
DWIDTH 11 0
BBX 10 12 1 -2
BITMAP
8400
8400
8400
fc00
8400
8800
8800
c800
0800
3e00
6300
4100
ENDCHAR
STARTCHAR Ze
ENCODING  31813
SWIDTH 340 0
DWIDTH 15 0
BBX 14 10 1 0
BITMAP
6070
9088
9080
1f80
1080
1100
1100
1100
1100
1980
ENDCHAR
STARTCHAR Zu
ENCODING  31814
SWIDTH 340 0
DWIDTH 15 0
BBX 14 10 1 0
BITMAP
6070
9088
9080
1f80
10f8
1108
1108
1100
1100
1980
ENDCHAR
STARTCHAR Zi
ENCODING  31815
SWIDTH 340 0
DWIDTH 16 0
BBX 15 10 1 0
BITMAP
6070
9088
9080
1f80
1080
1100
1100
1108
1108
31f8
ENDCHAR
STARTCHAR Za
ENCODING  31816
SWIDTH 340 0
DWIDTH 15 0
BBX 14 10 1 0
BITMAP
6070
9088
9080
1f80
1080
1100
1100
1900
0100
0180
ENDCHAR
STARTCHAR ZE
ENCODING  31817
SWIDTH 340 0
DWIDTH 15 0
BBX 14 10 1 -1
BITMAP
6070
9088
9080
1f80
1080
1100
1180
1160
1110
19e0
ENDCHAR
STARTCHAR Z
ENCODING  31818
SWIDTH 340 0
DWIDTH 15 0
BBX 14 12 1 0
BITMAP
8800
f800
2000
6070
9088
9080
1f80
1080
1100
1100
1100
1980
ENDCHAR
STARTCHAR Zo
ENCODING  31819
SWIDTH 340 0
DWIDTH 15 0
BBX 14 10 1 0
BITMAP
6070
9088
9080
1f80
1080
1100
1100
1180
1000
1800
ENDCHAR
STARTCHAR ZWa
ENCODING  31820
SWIDTH 360 0
DWIDTH 15 0
BBX 14 12 1 0
BITMAP
6070
9088
9080
1f80
1080
1100
1100
1900
0100
07c0
0c60
0820
ENDCHAR
STARTCHAR ye
ENCODING  31821
SWIDTH 167 0
DWIDTH 8 0
BBX 7 10 1 0
BITMAP
70
88
88
90
a0
40
40
40
40
40
ENDCHAR
STARTCHAR yu
ENCODING  31822
SWIDTH 187 0
DWIDTH 9 0
BBX 8 10 1 0
BITMAP
70
88
88
90
a0
40
7c
44
44
40
ENDCHAR
STARTCHAR yi
ENCODING  31823
SWIDTH 240 0
DWIDTH 11 0
BBX 10 10 1 0
BITMAP
7000
8800
8800
9000
a000
4800
4800
7e00
4200
4200
ENDCHAR
STARTCHAR ya
ENCODING  31824
SWIDTH 220 0
DWIDTH 11 0
BBX 10 11 0 -1
BITMAP
0e00
1100
1100
1200
1400
1800
0800
0800
3c00
4000
8000
ENDCHAR
STARTCHAR yE
ENCODING  31825
SWIDTH 220 0
DWIDTH 11 0
BBX 10 10 1 0
BITMAP
7000
8800
8800
9000
a000
4f00
7980
4f00
4000
4000
ENDCHAR
STARTCHAR y
ENCODING  31826
SWIDTH 240 0
DWIDTH 11 0
BBX 10 11 1 0
BITMAP
1c00
2200
2200
2400
2800
1000
1080
1180
2e00
c000
8000
ENDCHAR
STARTCHAR yo
ENCODING  31827
SWIDTH 240 0
DWIDTH 11 0
BBX 10 10 1 0
BITMAP
7000
8800
8800
9f80
a080
c080
4000
4000
4000
4000
ENDCHAR
STARTCHAR yWa
ENCODING  31828
SWIDTH 167 0
DWIDTH 8 0
BBX 7 10 1 0
BITMAP
70
88
88
90
a0
40
40
40
40
40
ENDCHAR
STARTCHAR de
ENCODING  31829
SWIDTH 220 0
DWIDTH 11 0
BBX 10 10 0 0
BITMAP
0c00
1200
2200
2200
2400
1800
1000
7f00
c100
8180
ENDCHAR
STARTCHAR du
ENCODING  31830
SWIDTH 313 0
DWIDTH 16 0
BBX 14 11 1 0
BITMAP
0e00
1100
1100
1200
0c00
7f80
4080
81f8
0108
0208
0200
ENDCHAR
STARTCHAR di
ENCODING  31831
SWIDTH 293 0
DWIDTH 15 0
BBX 14 11 1 -1
BITMAP
0e00
1100
1100
1200
0c00
7f80
4040
8080
0088
0108
01f8
ENDCHAR
STARTCHAR da
ENCODING  31832
SWIDTH 226 0
DWIDTH 12 0
BBX 10 11 0 0
BITMAP
1c00
2200
2200
2400
1800
7f00
4080
8100
0100
0200
0200
ENDCHAR
STARTCHAR dE
ENCODING  31833
SWIDTH 260 0
DWIDTH 13 0
BBX 12 11 0 0
BITMAP
0c00
1200
1200
2200
2400
2800
1000
1080
7f60
c120
81e0
ENDCHAR
STARTCHAR d
ENCODING  31834
SWIDTH 260 0
DWIDTH 13 0
BBX 12 10 0 0
BITMAP
0c00
1200
2200
23e0
2420
1800
1000
7f00
c180
8080
ENDCHAR
STARTCHAR do
ENCODING  31835
SWIDTH 266 0
DWIDTH 12 0
BBX 11 11 1 0
BITMAP
0c00
1200
1200
2200
2400
2800
1000
3f80
4040
8040
8000
ENDCHAR
STARTCHAR dWa
ENCODING  31836
SWIDTH 300 0
DWIDTH 15 0
BBX 14 12 0 -1
BITMAP
0c00
1200
1200
2200
2400
2800
1000
1000
ff80
8080
87f0
0410
ENDCHAR
STARTCHAR De
ENCODING  31837
SWIDTH 246 0
DWIDTH 13 0
BBX 12 13 0 -2
BITMAP
0000
0c00
0400
0c00
1200
1200
2200
2400
1800
1000
7e00
c300
8100
ENDCHAR
STARTCHAR Du
ENCODING  31838
SWIDTH 266 0
DWIDTH 14 0
BBX 14 14 0 -2
BITMAP
0c00
0400
0400
0e00
1100
1100
1200
0c00
7f80
4080
81f8
0108
0208
0200
ENDCHAR
STARTCHAR Di
ENCODING  31839
SWIDTH 253 0
DWIDTH 13 0
BBX 13 15 0 -3
BITMAP
0000
0c00
0400
0400
0e00
1100
1100
1200
0c00
7f00
4080
8100
0110
0210
03f0
ENDCHAR
STARTCHAR Da
ENCODING  31840
SWIDTH 246 0
DWIDTH 13 0
BBX 12 14 0 -2
BITMAP
1800
0800
0800
1c00
2200
2200
2400
1800
ff00
8080
8100
0100
0200
0200
ENDCHAR
STARTCHAR DE
ENCODING  31841
SWIDTH 246 0
DWIDTH 13 0
BBX 12 13 0 -2
BITMAP
0000
0e00
0400
0600
0900
0900
1100
1200
1400
0880
7f60
c120
81e0
ENDCHAR
STARTCHAR D
ENCODING  31842
SWIDTH 280 0
DWIDTH 14 0
BBX 13 13 0 -2
BITMAP
0000
0e00
0400
0600
0900
11e0
1120
1600
0800
0800
7f80
c0c0
8040
ENDCHAR
STARTCHAR Do
ENCODING  31843
SWIDTH 266 0
DWIDTH 14 0
BBX 13 14 0 -2
BITMAP
0400
0e00
0400
0600
0900
1100
1200
1400
0800
1f80
2040
4040
8000
8000
ENDCHAR
STARTCHAR DWa
ENCODING  31844
SWIDTH 300 0
DWIDTH 15 0
BBX 14 12 0 -1
BITMAP
0c00
1200
1200
2200
2400
2800
1000
1000
ff80
8080
87f0
0410
ENDCHAR
STARTCHAR je
ENCODING  31845
SWIDTH 246 0
DWIDTH 13 0
BBX 12 13 0 -2
BITMAP
4040
ffe0
8420
0600
0900
1100
1100
1200
0c00
0800
7f00
c180
8080
ENDCHAR
STARTCHAR ju
ENCODING  31846
SWIDTH 266 0
DWIDTH 14 0
BBX 14 14 0 -2
BITMAP
4040
ffe0
8420
0e00
1100
1100
1200
0c00
7fc0
4040
40fc
8084
0184
0100
ENDCHAR
STARTCHAR ji
ENCODING  31847
SWIDTH 253 0
DWIDTH 13 0
BBX 13 15 0 -3
BITMAP
4040
ffe0
8420
0600
0900
1100
1100
1200
0c00
7f80
4040
8080
0088
0108
01f8
ENDCHAR
STARTCHAR ja
ENCODING  31848
SWIDTH 246 0
DWIDTH 13 0
BBX 12 14 0 -2
BITMAP
4040
ffe0
8420
0e00
1100
1100
1200
0c00
7f80
4040
8080
0080
0100
0100
ENDCHAR
STARTCHAR jE
ENCODING  31849
SWIDTH 246 0
DWIDTH 13 0
BBX 12 13 0 -2
BITMAP
4080
ffc0
8840
0c00
1200
2200
2400
2800
1000
1080
7f60
c120
81e0
ENDCHAR
STARTCHAR j
ENCODING  31850
SWIDTH 280 0
DWIDTH 14 0
BBX 13 13 0 -2
BITMAP
4040
ffe0
8820
0c00
1200
2200
23e0
2420
1820
1000
7f00
c180
8080
ENDCHAR
STARTCHAR jo
ENCODING  31851
SWIDTH 266 0
DWIDTH 14 0
BBX 13 14 0 -2
BITMAP
4040
ffe0
8820
0c00
1200
1200
2200
2400
2800
1000
3f80
4040
8040
8000
ENDCHAR
STARTCHAR jWa
ENCODING  31852
SWIDTH 300 0
DWIDTH 15 0
BBX 14 12 0 -1
BITMAP
0c00
1200
1200
2200
2400
2800
1000
1000
ff80
8080
87f0
0410
ENDCHAR
STARTCHAR ge
ENCODING  31853
SWIDTH 167 0
DWIDTH 9 0
BBX 7 10 0 0
BITMAP
78
84
84
04
04
04
04
08
08
08
ENDCHAR
STARTCHAR gu
ENCODING  31854
SWIDTH 240 0
DWIDTH 12 0
BBX 11 10 0 0
BITMAP
7800
8400
8400
0400
0400
07c0
0440
0840
0800
0800
ENDCHAR
STARTCHAR gi
ENCODING  31855
SWIDTH 240 0
DWIDTH 12 0
BBX 11 11 0 -1
BITMAP
7800
8400
8400
0400
0400
0400
0400
0800
0840
1040
0fc0
ENDCHAR
STARTCHAR ga
ENCODING  31856
SWIDTH 220 0
DWIDTH 11 0
BBX 10 11 0 0
BITMAP
1e00
2100
2100
0100
0100
0100
0100
0600
3800
4000
4000
ENDCHAR
STARTCHAR gE
ENCODING  31857
SWIDTH 220 0
DWIDTH 11 0
BBX 10 10 0 0
BITMAP
7800
8400
8400
0400
0400
0400
0400
0700
0880
1f00
ENDCHAR
STARTCHAR g
ENCODING  31858
SWIDTH 206 0
DWIDTH 11 0
BBX 10 10 0 0
BITMAP
7f00
8880
5080
2080
0080
0080
0080
0100
0100
0100
ENDCHAR
STARTCHAR go
ENCODING  31859
SWIDTH 187 0
DWIDTH 10 0
BBX 8 11 0 0
BITMAP
10
10
78
84
84
04
04
04
08
08
08
ENDCHAR
STARTCHAR gWe
ENCODING  31861
SWIDTH 300 0
DWIDTH 15 0
BBX 14 10 0 0
BITMAP
7800
8400
8400
0400
07f0
0490
04f0
0800
0800
0800
ENDCHAR
STARTCHAR gWi
ENCODING  31863
SWIDTH 320 0
DWIDTH 16 0
BBX 15 10 0 0
BITMAP
7800
8400
8440
0440
07c0
0440
0470
0810
0800
0800
ENDCHAR
STARTCHAR gWa
ENCODING  31864
SWIDTH 193 0
DWIDTH 10 0
BBX 9 10 0 0
BITMAP
7000
8800
8800
0800
7e00
8200
8200
0600
0400
0400
ENDCHAR
STARTCHAR gWE
ENCODING  31865
SWIDTH 246 0
DWIDTH 13 0
BBX 12 12 0 -1
BITMAP
3c00
4200
4200
0200
0600
0400
0600
0580
0880
1f80
7000
4000
ENDCHAR
STARTCHAR gWu/gW
ENCODING  31866
SWIDTH 293 0
DWIDTH 15 0
BBX 14 10 0 0
BITMAP
7800
8400
8440
0440
07f0
0410
0400
0800
0800
0800
ENDCHAR
STARTCHAR Ge
ENCODING  31869
SWIDTH 167 0
DWIDTH 9 0
BBX 7 13 0 0
BITMAP
44
fe
82
78
84
84
04
04
04
04
08
08
08
ENDCHAR
STARTCHAR Gu
ENCODING  31870
SWIDTH 240 0
DWIDTH 12 0
BBX 11 13 0 0
BITMAP
4400
fe00
8200
7800
8400
8400
0400
0400
07c0
0440
0840
0800
0800
ENDCHAR
STARTCHAR Gi
ENCODING  32033
SWIDTH 240 0
DWIDTH 12 0
BBX 11 14 0 -1
BITMAP
4400
fe00
8200
7800
8400
8400
0400
0400
0400
0400
0800
0840
1040
0fc0
ENDCHAR
STARTCHAR Ga
ENCODING  32034
SWIDTH 220 0
DWIDTH 11 0
BBX 10 14 0 0
BITMAP
1100
3f80
2080
1e00
2100
2100
0100
0100
0100
0100
0600
3800
4000
4000
ENDCHAR
STARTCHAR GE
ENCODING  32035
SWIDTH 220 0
DWIDTH 11 0
BBX 10 13 0 0
BITMAP
4400
fe00
8200
7800
8400
8400
0400
0400
0400
0400
0700
0880
1f00
ENDCHAR
STARTCHAR G
ENCODING  32036
SWIDTH 206 0
DWIDTH 11 0
BBX 10 13 0 0
BITMAP
4080
ffc0
8040
7f00
8880
5080
2080
0080
0080
0080
0100
0100
0100
ENDCHAR
STARTCHAR Go
ENCODING  32037
SWIDTH 187 0
DWIDTH 10 0
BBX 8 14 0 0
BITMAP
00
42
ff
91
10
78
84
84
04
04
04
08
08
08
ENDCHAR
STARTCHAR GWa
ENCODING  32038
SWIDTH 193 0
DWIDTH 10 0
BBX 9 10 0 0
BITMAP
7000
8800
8800
0800
7e00
8200
8200
0600
0400
0400
ENDCHAR
STARTCHAR Te
ENCODING  32039
SWIDTH 293 0
DWIDTH 12 0
BBX 10 8 1 0
BITMAP
1e00
6900
4880
c880
8880
8880
8880
8880
ENDCHAR
STARTCHAR Tu
ENCODING  32040
SWIDTH 360 0
DWIDTH 17 0
BBX 16 8 1 0
BITMAP
1f8000
244000
444000
847e00
844200
844200
844000
842000
ENDCHAR
STARTCHAR Ti
ENCODING  32041
SWIDTH 360 0
DWIDTH 18 0
BBX 16 9 1 -1
BITMAP
1f80
2440
4440
8440
8440
8440
8442
8442
443e
ENDCHAR
STARTCHAR Ta
ENCODING  32042
SWIDTH 293 0
DWIDTH 13 0
BBX 13 10 1 0
BITMAP
3f80
6460
c420
8420
8420
8440
0040
0080
0080
0080
ENDCHAR
STARTCHAR TE
ENCODING  32043
SWIDTH 353 0
DWIDTH 16 0
BBX 15 8 1 0
BITMAP
3f00
6980
c880
8880
8880
88f0
8898
8870
ENDCHAR
STARTCHAR T
ENCODING  32044
SWIDTH 273 0
DWIDTH 14 0
BBX 12 10 1 0
BITMAP
3f80
64c0
c460
8420
8620
0200
0200
0200
0200
0200
ENDCHAR
STARTCHAR To
ENCODING  32045
SWIDTH 293 0
DWIDTH 13 0
BBX 11 9 1 0
BITMAP
1f00
6880
4840
c840
8840
8840
8000
8000
8000
ENDCHAR
STARTCHAR TWa
ENCODING  32046
SWIDTH 360 0
DWIDTH 18 0
BBX 16 10 1 -2
BITMAP
07c0
1a20
1220
3220
2220
2220
2220
01fc
0306
0202
ENDCHAR
STARTCHAR Ce
ENCODING  32047
SWIDTH 386 0
DWIDTH 20 0
BBX 18 8 1 0
BITMAP
0fe000
3a3000
621800
c20800
820800
e38e00
924900
f3cf00
ENDCHAR
STARTCHAR Cu
ENCODING  32048
SWIDTH 406 0
DWIDTH 21 0
BBX 19 8 1 0
BITMAP
0fe000
3a3000
621800
c20fe0
820820
e38e20
924900
f3cf00
ENDCHAR
STARTCHAR Ci
ENCODING  32049
SWIDTH 406 0
DWIDTH 21 0
BBX 19 10 1 -2
BITMAP
03e000
3e3000
621800
c20800
820800
e38800
924800
f3c800
000f00
000000
ENDCHAR
STARTCHAR Ca
ENCODING  32050
SWIDTH 373 0
DWIDTH 19 0
BBX 17 10 1 0
BITMAP
1ff000
721800
820800
e38800
924800
f3c800
000800
000e00
000900
000f00
ENDCHAR
STARTCHAR CE
ENCODING  32051
SWIDTH 386 0
DWIDTH 20 0
BBX 18 8 1 0
BITMAP
03e000
3e3000
621800
c20800
820800
e38800
924800
f3cf00
ENDCHAR
STARTCHAR C
ENCODING  32052
SWIDTH 373 0
DWIDTH 19 0
BBX 17 10 1 0
BITMAP
1ff000
721800
820800
e30e00
910900
f10f00
010000
01c000
012000
01e000
ENDCHAR
STARTCHAR Co
ENCODING  32053
SWIDTH 373 0
DWIDTH 19 0
BBX 18 9 1 0
BITMAP
0ff000
3a1800
620800
420e00
c38900
824f00
e3c000
900000
f00000
ENDCHAR
STARTCHAR CWa
ENCODING  32054
SWIDTH 400 0
DWIDTH 20 0
BBX 19 11 1 -3
BITMAP
03e000
1e3000
721800
c20800
820c00
e38400
924400
f3c400
003f80
0060c0
004040
ENDCHAR
STARTCHAR Pe
ENCODING  32055
SWIDTH 233 0
DWIDTH 12 0
BBX 10 11 1 0
BITMAP
3800
1000
3800
4400
4400
4800
3800
4400
8200
8200
c300
ENDCHAR
STARTCHAR Pu
ENCODING  32056
SWIDTH 280 0
DWIDTH 14 0
BBX 13 11 1 0
BITMAP
3800
1000
3800
4400
4400
4800
3800
47e0
8220
8220
c300
ENDCHAR
STARTCHAR Pi
ENCODING  32057
SWIDTH 293 0
DWIDTH 15 0
BBX 13 12 1 -1
BITMAP
3800
1000
3800
4400
4400
4800
3800
4400
8200
8220
8220
c3e0
ENDCHAR
STARTCHAR Pa
ENCODING  32058
SWIDTH 233 0
DWIDTH 12 0
BBX 10 11 1 0
BITMAP
3800
1000
3800
4400
4400
4800
3800
4400
8200
4200
0300
ENDCHAR
STARTCHAR PE
ENCODING  32059
SWIDTH 280 0
DWIDTH 14 0
BBX 12 11 1 0
BITMAP
3800
1000
3800
4400
4400
4800
3800
4500
82e0
8220
c3e0
ENDCHAR
STARTCHAR P
ENCODING  32060
SWIDTH 280 0
DWIDTH 13 0
BBX 11 11 1 0
BITMAP
3800
1000
3800
4400
4780
4880
3800
4400
8200
8200
c300
ENDCHAR
STARTCHAR Po
ENCODING  32061
SWIDTH 280 0
DWIDTH 14 0
BBX 12 11 1 0
BITMAP
3800
1000
3800
4400
4400
4800
3800
4400
8600
8000
c000
ENDCHAR
STARTCHAR PWa
ENCODING  32062
SWIDTH 206 0
DWIDTH 13 0
BBX 11 12 1 0
BITMAP
3800
4400
4800
5000
3800
4400
8200
8200
c200
1fc0
3060
2020
ENDCHAR
STARTCHAR Se
ENCODING  32063
SWIDTH 206 0
DWIDTH 11 0
BBX 10 9 1 0
BITMAP
3800
4400
4c00
5000
3800
4400
8200
8200
8200
ENDCHAR
STARTCHAR Su
ENCODING  32064
SWIDTH 280 0
DWIDTH 14 0
BBX 13 9 1 0
BITMAP
3800
4400
4c00
5000
3800
47e0
8220
8220
c300
ENDCHAR
STARTCHAR Si
ENCODING  32065
SWIDTH 293 0
DWIDTH 15 0
BBX 13 10 1 -1
BITMAP
3800
4400
4c00
5000
3800
4400
8200
8220
8220
c3e0
ENDCHAR
STARTCHAR Sa
ENCODING  32066
SWIDTH 206 0
DWIDTH 11 0
BBX 10 9 0 0
BITMAP
3800
4400
4c00
5000
3800
4400
8200
0200
0300
ENDCHAR
STARTCHAR SE
ENCODING  32067
SWIDTH 280 0
DWIDTH 14 0
BBX 12 9 1 0
BITMAP
3800
4400
4c00
5000
3800
4400
8380
8240
83c0
ENDCHAR
STARTCHAR S
ENCODING  32068
SWIDTH 273 0
DWIDTH 11 0
BBX 10 9 1 0
BITMAP
3800
4400
4f80
5080
3800
4400
8200
8200
8200
ENDCHAR
STARTCHAR So
ENCODING  32069
SWIDTH 206 0
DWIDTH 11 0
BBX 9 9 1 0
BITMAP
3800
4400
4800
5000
3c00
4200
8300
8000
c000
ENDCHAR
STARTCHAR SWa
ENCODING  32070
SWIDTH 206 0
DWIDTH 13 0
BBX 11 12 1 0
BITMAP
3800
4400
4800
5000
3800
4400
8200
8200
c200
1fc0
3060
2020
ENDCHAR
STARTCHAR `Se/S2e
ENCODING  32071
SWIDTH 193 0
DWIDTH 10 0
BBX 8 11 1 0
BITMAP
1e
72
c2
82
82
9e
e2
82
82
9e
e0
ENDCHAR
STARTCHAR `Su/S2u
ENCODING  32072
SWIDTH 273 0
DWIDTH 14 0
BBX 12 11 1 0
BITMAP
1e00
7200
c200
8200
8200
9ff0
e230
8210
8200
9e00
e000
ENDCHAR
STARTCHAR `Si/S2i
ENCODING  32073
SWIDTH 206 0
DWIDTH 11 0
BBX 10 11 1 -1
BITMAP
7c00
8400
fc00
8400
7e00
0200
0600
0c00
1880
1080
1f80
ENDCHAR
STARTCHAR `Sa/S2a
ENCODING  32074
SWIDTH 167 0
DWIDTH 9 0
BBX 7 10 1 0
BITMAP
7c
84
fc
84
7e
02
06
0c
18
30
ENDCHAR
STARTCHAR `SE/S2E
ENCODING  32075
SWIDTH 206 0
DWIDTH 11 0
BBX 9 10 1 0
BITMAP
7c00
8400
fc00
8400
7e00
0200
0600
0d80
1880
3f80
ENDCHAR
STARTCHAR `S/S2
ENCODING  32076
SWIDTH 173 0
DWIDTH 9 0
BBX 8 11 1 0
BITMAP
38
10
10
7e
c2
82
9e
e2
82
9e
e0
ENDCHAR
STARTCHAR `So/S2o
ENCODING  32077
SWIDTH 220 0
DWIDTH 11 0
BBX 9 11 1 0
BITMAP
1f00
2100
2f00
3100
2100
1f00
3800
6000
4000
c000
8000
ENDCHAR
STARTCHAR fe
ENCODING  32079
SWIDTH 266 0
DWIDTH 14 0
BBX 12 11 0 0
BITMAP
0600
0200
0600
0c00
1800
3000
6000
9840
8840
8fc0
7800
ENDCHAR
STARTCHAR fu
ENCODING  32080
SWIDTH 246 0
DWIDTH 13 0
BBX 11 11 1 0
BITMAP
0c00
1800
3000
6000
d800
8880
9f80
e8c0
0800
3800
6000
ENDCHAR
STARTCHAR fi
ENCODING  32081
SWIDTH 266 0
DWIDTH 14 0
BBX 12 11 0 -1
BITMAP
0c00
0400
0c00
1800
3000
6000
c000
b8c0
88c0
8f80
7000
ENDCHAR
STARTCHAR fa
ENCODING  32082
SWIDTH 246 0
DWIDTH 13 0
BBX 11 11 1 0
BITMAP
1800
0800
1800
3000
6000
d800
8800
9f80
6980
0880
0800
ENDCHAR
STARTCHAR fE
ENCODING  32083
SWIDTH 293 0
DWIDTH 15 0
BBX 14 12 0 -1
BITMAP
0000
0c00
0400
0c00
1800
3000
6000
d800
8840
9fb0
6090
00f0
ENDCHAR
STARTCHAR f
ENCODING  32084
SWIDTH 240 0
DWIDTH 12 0
BBX 10 10 1 0
BITMAP
3c00
6600
c200
8000
f000
8800
9e00
6a00
0800
0800
ENDCHAR
STARTCHAR fo
ENCODING  32085
SWIDTH 266 0
DWIDTH 14 0
BBX 11 11 1 0
BITMAP
0fc0
3a40
63c0
4000
c000
8000
a000
d880
8880
cfc0
7800
ENDCHAR
STARTCHAR fWa
ENCODING  32086
SWIDTH 246 0
DWIDTH 13 0
BBX 11 13 0 -2
BITMAP
0600
0400
1c00
3000
6800
4400
4800
3fc0
0880
0840
7f00
c180
8080
ENDCHAR
STARTCHAR pe
ENCODING  32087
SWIDTH 273 0
DWIDTH 14 0
BBX 13 11 0 0
BITMAP
7fc0
c460
8420
0400
0400
0400
0400
0400
0400
0c00
0700
ENDCHAR
STARTCHAR pu
ENCODING  32088
SWIDTH 273 0
DWIDTH 14 0
BBX 13 11 0 0
BITMAP
7fc0
c460
8420
0400
0400
0400
07e0
0420
0420
0c00
0700
ENDCHAR
STARTCHAR pi
ENCODING  32089
SWIDTH 273 0
DWIDTH 14 0
BBX 13 12 0 -1
BITMAP
7fc0
c460
8420
0400
0400
0400
0400
0400
0400
0440
0c40
07c0
ENDCHAR
STARTCHAR pa
ENCODING  32090
SWIDTH 293 0
DWIDTH 15 0
BBX 14 12 0 -1
BITMAP
3fe0
6230
4210
0200
0200
0200
0200
0200
0600
1c00
e000
8000
ENDCHAR
STARTCHAR pE
ENCODING  32091
SWIDTH 273 0
DWIDTH 14 0
BBX 13 11 0 0
BITMAP
7fc0
c460
8420
0400
0400
0400
0400
0400
07c0
0c60
07c0
ENDCHAR
STARTCHAR p
ENCODING  32092
SWIDTH 273 0
DWIDTH 14 0
BBX 13 11 1 0
BITMAP
7fc0
c460
8420
0400
0400
0400
0400
0c00
0800
0800
0800
ENDCHAR
STARTCHAR po
ENCODING  32093
SWIDTH 293 0
DWIDTH 15 0
BBX 15 11 0 0
BITMAP
1ff0
3118
2108
0100
0100
0100
0200
0600
0800
7000
4000
ENDCHAR
STARTCHAR pWa
ENCODING  32094
SWIDTH 293 0
DWIDTH 15 0
BBX 14 12 0 -1
BITMAP
3fe0
6230
4210
0200
0200
0200
0200
0200
0600
1c00
e000
8000
ENDCHAR
STARTCHAR mYa
ENCODING  32095
SWIDTH 353 0
DWIDTH 14 0
BBX 14 11 1 0
BITMAP
3fe0
4510
8510
8910
f0e0
0020
0020
0040
0040
0040
0040
ENDCHAR
STARTCHAR rYa
ENCODING  32096
SWIDTH 206 0
DWIDTH 11 0
BBX 8 10 1 0
BITMAP
04
04
08
10
20
40
84
82
82
7c
ENDCHAR
STARTCHAR fYa
ENCODING  32097
SWIDTH 266 0
DWIDTH 14 0
BBX 12 11 0 -1
BITMAP
0c00
0400
0c00
1800
3000
6000
c000
b8c0
88c0
8f80
7000
ENDCHAR
STARTCHAR Space
ENCODING  32103
SWIDTH 413 0
DWIDTH 12 0
BBX 0 0 0 0
BITMAP
ENDCHAR
STARTCHAR Ethiopic-Wordspace
ENCODING  32104
SWIDTH 206 0
DWIDTH 11 0
BBX 3 6 7 3
BITMAP
e0
e0
00
00
e0
e0
ENDCHAR
STARTCHAR Ethiopic-Full-Stop
ENCODING  32105
SWIDTH 206 0
DWIDTH 11 0
BBX 8 6 7 3
BITMAP
c6
c6
00
00
c6
c6
ENDCHAR
STARTCHAR Ethiopic-Comma
ENCODING  32106
SWIDTH 187 0
DWIDTH 10 0
BBX 6 11 3 1
BITMAP
7c
80
00
30
30
00
30
30
00
00
00
ENDCHAR
STARTCHAR Ethiopic-Semicolon
ENCODING  32107
SWIDTH 187 0
DWIDTH 10 0
BBX 6 11 3 1
BITMAP
7c
80
00
30
30
00
30
30
00
04
f8
ENDCHAR
STARTCHAR Ethiopic-Colon
ENCODING  32108
SWIDTH 173 0
DWIDTH 9 0
BBX 7 8 3 2
BITMAP
10
38
10
1e
f0
10
38
10
ENDCHAR
STARTCHAR Ethiopic-Preface-Colon
ENCODING  32109
SWIDTH 173 0
DWIDTH 9 0
BBX 6 8 3 2
BITMAP
40
e0
40
20
3c
40
e0
40
ENDCHAR
STARTCHAR Ethiopic-Question-Mark
ENCODING  32110
SWIDTH 293 0
DWIDTH 15 0
BBX 9 11 3 2
BITMAP
4000
e000
4000
0000
4000
e000
4000
0000
4000
e000
4000
ENDCHAR
STARTCHAR Ethiopic-End-Paragraph
ENCODING  32111
SWIDTH 293 0
DWIDTH 15 0
BBX 9 11 2 0
BITMAP
1c00
0800
c180
c180
0800
1c00
0800
c180
c180
0800
1c00
ENDCHAR
STARTCHAR Ethiopic-1
ENCODING  32112
SWIDTH 240 0
DWIDTH 12 0
BBX 10 14 1 -2
BITMAP
3f00
6180
4880
0800
0800
1800
2400
2200
2200
1e00
0000
3f00
6180
4080
ENDCHAR
STARTCHAR Ethiopic-2
ENCODING  32113
SWIDTH 220 0
DWIDTH 11 0
BBX 10 14 0 -2
BITMAP
3f80
6080
4e00
1100
1100
1e00
1000
1c00
1200
1200
0c00
3f00
6180
4080
ENDCHAR
STARTCHAR Ethiopic-3
ENCODING  32114
SWIDTH 226 0
DWIDTH 12 0
BBX 10 14 1 -2
BITMAP
7e00
c300
8000
3e00
2200
2000
2000
2000
2000
2000
0000
7e00
c300
8100
ENDCHAR
STARTCHAR Ethiopic-4
ENCODING  32115
SWIDTH 226 0
DWIDTH 12 0
BBX 10 14 1 -2
BITMAP
7e00
c300
8100
3c00
2400
4200
4200
4200
2400
3c00
0000
7e00
c300
8100
ENDCHAR
STARTCHAR Ethiopic-5
ENCODING  32116
SWIDTH 226 0
DWIDTH 12 0
BBX 10 14 0 -2
BITMAP
3f00
6180
4880
0800
0800
1700
2000
2000
2300
1c00
0000
3f00
6180
4080
ENDCHAR
STARTCHAR Ethiopic-6
ENCODING  32117
SWIDTH 206 0
DWIDTH 11 0
BBX 10 13 0 -2
BITMAP
3f00
6180
0080
3e00
0200
0200
0600
0900
0900
0600
3f00
6180
4080
ENDCHAR
STARTCHAR Ethiopic-7
ENCODING  32118
SWIDTH 246 0
DWIDTH 13 0
BBX 10 13 1 -2
BITMAP
3f00
6180
0080
3e00
0200
0200
0400
0800
0f00
0000
3f00
6180
4080
ENDCHAR
STARTCHAR Ethiopic-8
ENCODING  32119
SWIDTH 266 0
DWIDTH 14 0
BBX 12 14 1 -3
BITMAP
1fc0
3060
0000
1fc0
1240
0200
0200
0200
1fc0
1040
0000
1fc0
3060
2020
ENDCHAR
STARTCHAR Ethiopic-9
ENCODING  32120
SWIDTH 226 0
DWIDTH 12 0
BBX 9 14 1 -2
BITMAP
7e00
c300
8000
4200
4200
4e00
7200
4200
4e00
3800
0000
7e00
c300
8100
ENDCHAR
STARTCHAR Ethiopic-10
ENCODING  32121
SWIDTH 206 0
DWIDTH 11 0
BBX 9 13 1 -2
BITMAP
7e00
c300
8900
0800
1000
1000
1000
1000
1000
0000
7e00
c300
8100
ENDCHAR
STARTCHAR Ethiopic-20
ENCODING  32122
SWIDTH 246 0
DWIDTH 13 0
BBX 12 14 0 -2
BITMAP
1f80
30c0
0000
7fc0
4440
0400
0e00
1100
2080
2080
0000
3f00
6180
4080
ENDCHAR
STARTCHAR Ethiopic-30
ENCODING  32123
SWIDTH 260 0
DWIDTH 13 0
BBX 12 14 0 -2
BITMAP
1f80
30c0
0000
1300
2480
2480
2480
2480
2480
1900
0000
1f80
30c0
2040
ENDCHAR
STARTCHAR Ethiopic-40
ENCODING  32124
SWIDTH 260 0
DWIDTH 13 0
BBX 11 13 1 -2
BITMAP
3f00
6180
0000
8880
8880
8880
7f80
0080
0080
0080
3f00
6180
4080
ENDCHAR
STARTCHAR Ethiopic-50
ENCODING  32125
SWIDTH 206 0
DWIDTH 11 0
BBX 8 13 1 -2
BITMAP
7e
c3
a5
24
44
3c
04
04
04
00
7e
c3
81
ENDCHAR
STARTCHAR Ethiopic-60
ENCODING  32126
SWIDTH 273 0
DWIDTH 14 0
BBX 12 14 1 -2
BITMAP
1f80
30c0
0000
3fc0
2440
0400
0200
0200
3fc0
2040
0000
1f80
30c0
2040
ENDCHAR
STARTCHAR Ethiopic-70
ENCODING  32289
SWIDTH 246 0
DWIDTH 13 0
BBX 11 14 1 -2
BITMAP
3f00
6180
0000
1f80
7480
4780
4000
4000
4300
7e00
0000
7e00
c300
8100
ENDCHAR
STARTCHAR Ethiopic-80
ENCODING  32290
SWIDTH 320 0
DWIDTH 16 0
BBX 16 13 0 -2
BITMAP
07e0
0c30
0000
1ff8
324c
2244
0240
0240
0240
0000
07e0
0c30
0810
ENDCHAR
STARTCHAR Ethiopic-90
ENCODING  32291
SWIDTH 220 0
DWIDTH 11 0
BBX 9 14 1 -2
BITMAP
7e00
c300
0000
7c00
4400
0700
0200
0e00
0800
0800
0000
7e00
c300
8100
ENDCHAR
STARTCHAR Ethiopic-100
ENCODING  32292
SWIDTH 206 0
DWIDTH 11 0
BBX 10 14 0 -2
BITMAP
3f00
6180
4c80
1200
1100
1200
1400
0800
0800
0800
0800
3f00
6180
4080
ENDCHAR
STARTCHAR Ethiopic-10000
ENCODING  32293
SWIDTH 206 0
DWIDTH 11 0
BBX 12 14 0 -2
BITMAP
7f80
c0c0
3180
4a40
4620
4a40
5280
2100
3f00
2100
2100
7f80
c0c0
8040
ENDCHAR
STARTCHAR `qe/q2e
ENCODING  32297
SWIDTH 246 0
DWIDTH 13 0
BBX 12 13 0 0
BITMAP
4040
ffe0
8420
0400
1f80
34c0
64c0
6580
3f00
0400
0400
0400
0400
ENDCHAR
STARTCHAR `qu/q2u
ENCODING  32298
SWIDTH 246 0
DWIDTH 13 0
BBX 12 13 0 0
BITMAP
4040
ffe0
8420
0400
1f80
34c0
64c0
6580
3f00
0400
07e0
0440
0400
ENDCHAR
STARTCHAR `qi/q2i
ENCODING  32299
SWIDTH 246 0
DWIDTH 13 0
BBX 12 13 0 -1
BITMAP
4040
ffe0
8420
0400
1f80
34c0
64c0
6580
3f00
0400
0440
0440
07c0
ENDCHAR
STARTCHAR `qa/q2a
ENCODING  32300
SWIDTH 266 0
DWIDTH 14 0
BBX 13 13 0 -1
BITMAP
4040
ffe0
8420
0400
1f80
34c0
64c0
6580
3f00
0400
1c00
7000
c000
ENDCHAR
STARTCHAR `qE/q2E
ENCODING  32301
SWIDTH 246 0
DWIDTH 13 0
BBX 12 13 0 0
BITMAP
4040
ffe0
8420
0400
1f80
34c0
64c0
6580
3f00
0400
0780
0440
07c0
ENDCHAR
STARTCHAR `q/q2
ENCODING  32302
SWIDTH 246 0
DWIDTH 13 0
BBX 12 14 0 0
BITMAP
4100
ff80
8880
0e00
0200
0fc0
1a60
3260
32c0
1f80
0200
0200
0200
0200
ENDCHAR
STARTCHAR `qo/q2o
ENCODING  32303
SWIDTH 260 0
DWIDTH 13 0
BBX 12 13 0 0
BITMAP
4080
ffc0
8c40
1200
1200
1400
3f80
4980
c900
fe00
0800
0800
0800
ENDCHAR
STARTCHAR mWe
ENCODING  32305
SWIDTH 333 0
DWIDTH 13 0
BBX 13 6 1 2
BITMAP
3fe0
6520
c520
8a20
9240
f3c0
ENDCHAR
STARTCHAR bWe
ENCODING  32306
SWIDTH 187 0
DWIDTH 10 0
BBX 8 11 1 0
BITMAP
00
3c
42
82
82
82
82
82
82
82
42
ENDCHAR
STARTCHAR GWe
ENCODING  32307
SWIDTH 167 0
DWIDTH 9 0
BBX 7 13 0 0
BITMAP
44
fe
82
78
84
84
04
04
04
04
08
08
08
ENDCHAR
STARTCHAR fWe
ENCODING  32308
SWIDTH 266 0
DWIDTH 14 0
BBX 12 11 0 0
BITMAP
0600
0200
0600
0c00
1800
3000
6000
9840
8840
8fc0
7800
ENDCHAR
STARTCHAR pWe
ENCODING  32309
SWIDTH 273 0
DWIDTH 14 0
BBX 13 11 0 0
BITMAP
7fc0
c460
8420
0400
0400
0400
0400
0400
0400
0c00
0700
ENDCHAR
STARTCHAR `ke/k2e
ENCODING  32313
SWIDTH 260 0
DWIDTH 13 0
BBX 12 12 0 0
BITMAP
4100
ff80
8080
0000
0bc0
0e60
0420
0420
0420
0420
0420
0420
ENDCHAR
STARTCHAR `ku/k2u
ENCODING  32314
SWIDTH 320 0
DWIDTH 16 0
BBX 16 12 0 0
BITMAP
4080
ffc0
8040
0000
0bc0
0e60
0420
043e
0422
0422
0420
0420
ENDCHAR
STARTCHAR `ki/k2i
ENCODING  32315
SWIDTH 340 0
DWIDTH 17 0
BBX 16 13 0 -1
BITMAP
4080
ffc0
8040
0000
0bc0
0e60
0420
0420
0420
0420
0422
0422
043e
ENDCHAR
STARTCHAR `ka/k2a
ENCODING  32316
SWIDTH 260 0
DWIDTH 13 0
BBX 12 12 0 0
BITMAP
4080
ffc0
8040
0000
0bc0
0e60
0420
0420
0420
0420
0020
0020
ENDCHAR
STARTCHAR `kE/k2E
ENCODING  32317
SWIDTH 313 0
DWIDTH 16 0
BBX 15 12 0 0
BITMAP
4080
ffc0
8040
0000
0bc0
0e60
0420
0420
0430
042c
0424
043c
ENDCHAR
STARTCHAR `k/k2
ENCODING  32318
SWIDTH 260 0
DWIDTH 13 0
BBX 12 12 0 0
BITMAP
4080
ffc0
8040
0000
0bc0
0e60
0420
0420
0320
0220
0220
0220
ENDCHAR
STARTCHAR `ko/k2o
ENCODING  32319
SWIDTH 260 0
DWIDTH 13 0
BBX 12 12 0 0
BITMAP
4080
ffc0
8040
0000
0bc0
0e60
0420
0420
0420
0420
0400
0400
ENDCHAR
STARTCHAR mWi
ENCODING  32321
SWIDTH 340 0
DWIDTH 13 0
BBX 13 11 1 0
BITMAP
3fc0
ea20
8a20
8920
89e0
7800
1800
3000
6000
c000
8000
ENDCHAR
STARTCHAR bWi
ENCODING  32322
SWIDTH 266 0
DWIDTH 14 0
BBX 12 11 1 0
BITMAP
0000
3c00
4200
8200
8200
83e0
8220
8200
8200
8200
4200
ENDCHAR
STARTCHAR GWi
ENCODING  32323
SWIDTH 240 0
DWIDTH 12 0
BBX 11 13 0 0
BITMAP
4400
fe00
8200
7800
8400
8400
0400
0400
07c0
0440
0840
0800
0800
ENDCHAR
STARTCHAR fWi
ENCODING  32324
SWIDTH 240 0
DWIDTH 12 0
BBX 10 10 1 0
BITMAP
3c00
6600
c200
8000
f000
8800
9e00
6a00
0800
0800
ENDCHAR
STARTCHAR pWi
ENCODING  32325
SWIDTH 273 0
DWIDTH 14 0
BBX 13 11 0 0
BITMAP
7fc0
c460
8420
0400
0400
0400
07e0
0420
0420
0c00
0700
ENDCHAR
STARTCHAR Xe
ENCODING  32329
SWIDTH 260 0
DWIDTH 13 0
BBX 12 15 0 0
BITMAP
0000
4200
ff00
8100
4080
ffc0
8800
0bc0
0e60
0420
0420
0420
0420
0420
0420
ENDCHAR
STARTCHAR Xu
ENCODING  32330
SWIDTH 320 0
DWIDTH 16 0
BBX 16 15 0 0
BITMAP
0000
4200
ff00
8100
4080
ffc0
8800
0bc0
0e60
0420
043e
0422
0422
0420
0420
ENDCHAR
STARTCHAR Xi
ENCODING  32331
SWIDTH 340 0
DWIDTH 17 0
BBX 16 16 0 -1
BITMAP
0000
4200
ff00
8100
4080
ffc0
8800
0bc0
0e60
0420
0420
0420
0420
0422
0422
043e
ENDCHAR
STARTCHAR Xa
ENCODING  32332
SWIDTH 260 0
DWIDTH 13 0
BBX 12 15 0 0
BITMAP
0000
4200
ff00
8100
4080
ffc0
8800
0bc0
0e60
0420
0420
0420
0420
0020
0020
ENDCHAR
STARTCHAR XE
ENCODING  32333
SWIDTH 313 0
DWIDTH 16 0
BBX 15 15 0 0
BITMAP
0000
4200
ff00
8100
4080
ffc0
8800
0bc0
0e60
0420
0420
0430
042c
0424
043c
ENDCHAR
STARTCHAR X
ENCODING  32334
SWIDTH 260 0
DWIDTH 13 0
BBX 12 15 0 0
BITMAP
0000
4200
ff00
8100
4080
ffc0
8800
0bc0
0e60
0420
0420
0320
0220
0220
0220
ENDCHAR
STARTCHAR Xo
ENCODING  32335
SWIDTH 260 0
DWIDTH 13 0
BBX 12 15 0 0
BITMAP
0000
4200
ff00
8100
4080
ffc0
8800
0bc0
0e60
0420
0420
0420
0420
0400
0400
ENDCHAR
STARTCHAR mWE
ENCODING  32337
SWIDTH 353 0
DWIDTH 14 0
BBX 14 11 1 0
BITMAP
3fe0
4510
8510
8910
f0e0
0020
0020
0040
0040
0040
0040
ENDCHAR
STARTCHAR bWE
ENCODING  32338
SWIDTH 246 0
DWIDTH 13 0
BBX 11 11 1 0
BITMAP
0000
3c00
4200
8200
8200
8200
8200
8300
8280
8240
83c0
ENDCHAR
STARTCHAR GWE
ENCODING  32339
SWIDTH 220 0
DWIDTH 11 0
BBX 10 13 0 0
BITMAP
4400
fe00
8200
7800
8400
8400
0400
0400
0400
0400
0700
0880
1f00
ENDCHAR
STARTCHAR fWE
ENCODING  32340
SWIDTH 246 0
DWIDTH 13 0
BBX 11 11 1 0
BITMAP
0c00
1800
3000
6000
d800
8880
9f80
e8c0
0800
3800
6000
ENDCHAR
STARTCHAR pWE
ENCODING  32341
SWIDTH 273 0
DWIDTH 14 0
BBX 13 11 0 0
BITMAP
7fc0
c460
8420
0400
0400
0400
0400
0400
07c0
0c60
07c0
ENDCHAR
STARTCHAR `ge/g2e
ENCODING  32345
SWIDTH 167 0
DWIDTH 9 0
BBX 7 13 0 0
BITMAP
44
fe
82
78
84
84
04
04
04
04
08
08
08
ENDCHAR
STARTCHAR `gu/g2u
ENCODING  32346
SWIDTH 240 0
DWIDTH 12 0
BBX 11 13 0 0
BITMAP
4400
fe00
8200
7800
8400
8400
0400
0400
07c0
0440
0840
0800
0800
ENDCHAR
STARTCHAR `gi/g2i
ENCODING  32347
SWIDTH 240 0
DWIDTH 12 0
BBX 11 14 0 -1
BITMAP
4400
fe00
8200
7800
8400
8400
0400
0400
0400
0400
0800
0840
1040
0fc0
ENDCHAR
STARTCHAR `ga/g2a
ENCODING  32348
SWIDTH 220 0
DWIDTH 11 0
BBX 10 14 0 0
BITMAP
1100
3f80
2080
1e00
2100
2100
0100
0100
0100
0100
0600
3800
4000
4000
ENDCHAR
STARTCHAR `gE/g2E
ENCODING  32349
SWIDTH 220 0
DWIDTH 11 0
BBX 10 13 0 0
BITMAP
4400
fe00
8200
7800
8400
8400
0400
0400
0400
0400
0700
0880
1f00
ENDCHAR
STARTCHAR `g/g2
ENCODING  32350
SWIDTH 206 0
DWIDTH 11 0
BBX 10 13 0 0
BITMAP
4080
ffc0
8040
7f00
8880
5080
2080
0080
0080
0080
0100
0100
0100
ENDCHAR
STARTCHAR `go/g2o
ENCODING  32351
SWIDTH 187 0
DWIDTH 10 0
BBX 8 14 0 0
BITMAP
00
42
ff
91
10
78
84
84
04
04
04
08
08
08
ENDCHAR
STARTCHAR mW
ENCODING  32353
SWIDTH 340 0
DWIDTH 13 0
BBX 13 11 1 0
BITMAP
3fc0
ea20
8a20
8920
89e0
7800
1800
3000
6000
c000
8000
ENDCHAR
STARTCHAR bW
ENCODING  32354
SWIDTH 266 0
DWIDTH 14 0
BBX 12 11 1 0
BITMAP
0000
3c00
4200
8200
8200
83e0
8220
8200
8200
8200
4200
ENDCHAR
STARTCHAR GW
ENCODING  32355
SWIDTH 240 0
DWIDTH 12 0
BBX 11 13 0 0
BITMAP
4400
fe00
8200
7800
8400
8400
0400
0400
07c0
0440
0840
0800
0800
ENDCHAR
STARTCHAR fW
ENCODING  32356
SWIDTH 240 0
DWIDTH 12 0
BBX 10 10 1 0
BITMAP
3c00
6600
c200
8000
f000
8800
9e00
6a00
0800
0800
ENDCHAR
STARTCHAR pW
ENCODING  32357
SWIDTH 273 0
DWIDTH 14 0
BBX 13 11 0 0
BITMAP
7fc0
c460
8420
0400
0400
0400
07e0
0420
0420
0c00
0700
ENDCHAR
STARTCHAR Eritrea/Ethiopia
ENCODING  32368
SWIDTH 206 0
DWIDTH 11 0
BBX 12 12 0 1
BITMAP
0c00
1c00
1600
3300
6180
6180
c100
c1f0
6070
30c0
1f80
0f00
ENDCHAR
STARTCHAR Inverted-Eritrea/Ethiopia
ENCODING  32369
SWIDTH 206 0
DWIDTH 11 0
BBX 12 12 0 1
BITMAP
0c00
1c00
1e00
3f00
7f80
7f80
ff00
fff0
7ff0
3fc0
1f80
0f00
ENDCHAR
STARTCHAR Africa
ENCODING  32370
SWIDTH 206 0
DWIDTH 11 0
BBX 12 14 0 0
BITMAP
3f00
6180
c080
80d0
c070
7860
0c40
0440
0440
04c0
0480
0480
0580
0300
ENDCHAR
STARTCHAR Inverted-Africa
ENCODING  32371
SWIDTH 206 0
DWIDTH 11 0
BBX 12 14 0 0
BITMAP
3f00
7f80
ff80
ffd0
fff0
7fe0
0fc0
07c0
07c0
07c0
0780
0780
0780
0300
ENDCHAR
STARTCHAR wWe
ENCODING  32372
SWIDTH 300 0
DWIDTH 15 0
BBX 14 11 0 0
BITMAP
1f80
74c0
4440
c8c0
889c
cbe4
7e3c
0800
0800
0800
0800
ENDCHAR
STARTCHAR wWi
ENCODING  32373
SWIDTH 380 0
DWIDTH 19 0
BBX 17 11 0 0
BITMAP
1f8000
74c000
444400
c8c400
88fc00
c98780
7f0080
080080
080000
080000
080000
ENDCHAR
STARTCHAR wWa
ENCODING  32374
SWIDTH 246 0
DWIDTH 13 0
BBX 11 12 0 -1
BITMAP
1fc0
3260
6220
4460
64c0
3f80
0400
0400
0400
3fc0
60c0
0040
ENDCHAR
STARTCHAR wWE
ENCODING  32375
SWIDTH 246 0
DWIDTH 13 0
BBX 11 13 0 -2
BITMAP
1fc0
3260
6220
4260
64c0
3f80
0400
0800
1700
1100
3f00
e000
8000
ENDCHAR
STARTCHAR wW
ENCODING  32376
SWIDTH 360 0
DWIDTH 17 0
BBX 15 11 0 0
BITMAP
1f8000
74c000
444000
c8c800
888800
cbfe00
7e0200
080200
080000
080000
080000
ENDCHAR
STARTCHAR Ethiopic-Gemination
ENCODING  32377
SWIDTH 206 0
DWIDTH 10 0
BBX 8 2 2 11
BITMAP
c3
c3
ENDCHAR
STARTCHAR Ethiopic-Sarcasm-Mark
ENCODING  32378
SWIDTH 206 0
DWIDTH 4 0
BBX 2 12 2 0
BITMAP
d0
00
10
d0
d0
d0
d0
d0
d0
d0
d0
50
ENDCHAR
STARTCHAR Ethiopic-Point
ENCODING  32379
SWIDTH 206 0
DWIDTH 4 0
BBX 2 2 2 0
BITMAP
c0
c0
ENDCHAR
STARTCHAR Ethiopic-Left-Quote
ENCODING  32380
SWIDTH 293 0
DWIDTH 13 0
BBX 9 7 3 2
BITMAP
1980
3300
6600
cc00
6600
3300
1980
ENDCHAR
STARTCHAR Ethiopic-Right-Quote
ENCODING  32381
SWIDTH 293 0
DWIDTH 11 0
BBX 9 7 0 2
BITMAP
cc00
6600
3300
1980
3300
6600
cc00
ENDCHAR
STARTCHAR Ethiopic-Sylized-Question-Mark
ENCODING  32382
SWIDTH 206 0
DWIDTH 10 0
BBX 8 12 2 0
BITMAP
f8
0c
04
04
04
3c
20
20
20
00
60
60
ENDCHAR
ENDFONT
